<svg width="460" height="270" viewBox="0 0 460 270" fill="none" xmlns="http://www.w3.org/2000/svg">
<rect x="2.2439" y="2.2439" width="455.512" height="265.512" rx="10.7561" fill="white" stroke="#E6E8EA" stroke-width="4.4878"/>
<path d="M5 13.0136C5 8.59529 8.58172 5.01358 13 5.01358H447C451.418 5.01358 455 8.5953 455 13.0136V27.0734H5V13.0136Z" fill="white"/>
<ellipse cx="432.049" cy="16.0924" rx="5.04878" ry="5.0625" fill="white"/>
<ellipse cx="389.049" cy="15.0897" rx="5.04878" ry="5.0625" fill="white"/>
<path d="M432.805 15.8478C433.45 15.8478 433.974 15.3232 433.974 14.6759C433.974 14.0287 433.45 13.5041 432.805 13.5041C432.159 13.5041 431.636 14.0287 431.636 14.6759C431.636 15.3232 432.159 15.8478 432.805 15.8478Z" stroke="#4C7CB4" stroke-width="0.280488" stroke-linecap="round" stroke-linejoin="round"/>
<path d="M434.813 18.1916C434.813 17.2845 433.913 16.5509 432.805 16.5509C431.697 16.5509 430.797 17.2845 430.797 18.1916" stroke="#4C7CB4" stroke-width="0.280488" stroke-linecap="round" stroke-linejoin="round"/>
<path fill-rule="evenodd" clip-rule="evenodd" d="M40.7734 15.0409H41.1233L41.1244 19.1218C41.1244 19.3531 41.2565 19.4687 41.4871 19.4687H41.8282C42.0707 19.4687 42.1908 19.3531 42.1908 19.1218V15.0409H43.1481C43.1972 15.0459 43.2468 15.0404 43.2933 15.0248C43.3397 15.0091 43.3822 14.9837 43.4169 14.9504C43.4518 14.9172 43.4784 14.8769 43.495 14.8325C43.5113 14.7881 43.517 14.7408 43.5119 14.694V14.5577C43.517 14.511 43.511 14.4637 43.4946 14.4195C43.4781 14.3752 43.4514 14.335 43.4165 14.3019C43.3816 14.2687 43.3395 14.2434 43.2931 14.2278C43.2466 14.2122 43.197 14.2067 43.1481 14.2117H42.1908V14.0021C42.1908 13.015 42.8404 12.921 43.2477 12.9003C43.501 12.8787 43.632 12.7847 43.632 12.5534V12.3541C43.632 12.1341 43.5108 12.0081 43.2712 12.0081H43.1391C42.5645 12.0081 41.1233 12.2808 41.1253 13.9598V14.2117H40.7734C40.7245 14.2067 40.6749 14.2122 40.6285 14.2278C40.582 14.2434 40.5398 14.2687 40.5049 14.3019C40.4701 14.335 40.4434 14.3752 40.4269 14.4195C40.4104 14.4637 40.4046 14.511 40.4097 14.5577V14.694C40.4044 14.7408 40.4101 14.7881 40.4266 14.8325C40.443 14.8769 40.4696 14.9172 40.5045 14.9504C40.5394 14.9837 40.5817 15.0091 40.6282 15.0248C40.6747 15.0404 40.7244 15.0459 40.7734 15.0409ZM27.4493 16.0771C27.4508 16.1623 27.4525 16.2518 27.4525 16.3438C27.4663 17.0564 27.4801 17.8649 27.3273 18.2569C27.2095 18.5684 27.0226 18.852 26.7793 19.0882C26.536 19.3244 26.2421 19.5078 25.9177 19.6257L25.8891 19.637C25.558 19.7592 25.2051 19.8183 24.8501 19.8109H24.6766C23.7382 19.7827 22.439 19.1998 22.439 18.1695C22.439 17.6017 22.7347 16.6146 24.6964 16.3936L24.862 16.3748C25.2079 16.3372 25.5658 16.2978 25.9059 16.2272C26.4303 16.1172 26.4973 15.9104 26.4973 15.7412C26.5068 15.6486 26.4957 15.5552 26.4646 15.4671C26.4335 15.3789 26.3832 15.298 26.3169 15.2298C26.1237 15.0014 25.755 14.8904 25.1902 14.8904C24.1246 14.8904 23.8752 15.352 23.7629 15.8502C23.744 15.967 23.6789 16.0724 23.581 16.1446C23.483 16.2169 23.3597 16.2505 23.2365 16.2385C23.1061 16.2402 22.9798 16.195 22.8828 16.1119C22.7858 16.0288 22.7252 15.9139 22.7131 15.7901C22.7121 15.7801 22.7121 15.77 22.7131 15.76C22.7463 15.3725 22.9 15.0033 23.1547 14.6996C23.5963 14.1872 24.3109 13.9268 25.2809 13.9268C25.7381 13.9203 26.1891 14.0283 26.589 14.2399C26.9803 14.4655 27.4465 14.929 27.4465 15.8559C27.4465 15.9253 27.4479 15.9994 27.4493 16.077V16.077V16.077V16.077V16.0771V16.0771V16.0771ZM24.8078 18.8313C25.2661 18.8313 26.4549 18.5728 26.4549 17.392V16.8562C26.3678 16.8926 26.277 16.9204 26.1838 16.9389C25.8763 16.9953 25.412 17.0733 25.1271 17.1147C24.031 17.2745 23.5095 17.4484 23.5095 18.0012C23.5095 18.5145 24.1828 18.8313 24.8078 18.8313ZM28.7635 14.159C28.521 14.159 28.4008 14.2747 28.4008 14.505V21.2211C28.4008 21.4523 28.521 21.568 28.7635 21.568H29.1075C29.3382 21.568 29.4594 21.4523 29.4594 21.2211V19.1134C29.4605 18.9589 29.4496 18.8047 29.4269 18.6518H29.4486C29.6177 18.945 29.8685 19.188 30.1732 19.3539C30.478 19.5198 30.8249 19.6021 31.1756 19.5919C32.6276 19.5919 33.6952 18.5042 33.6952 16.812C33.6952 15.164 32.7489 14.0312 31.2525 14.0312C29.8528 14.0312 29.3796 15.0493 29.3796 15.0493H29.3579C29.3723 14.9559 29.3795 14.8617 29.3796 14.7673V14.4533C29.3796 14.2747 29.2584 14.159 29.0169 14.159H28.7635ZM32.6138 16.8242C32.6138 18.0304 31.8883 18.7129 31.0081 18.7129C29.9848 18.7129 29.4378 17.7794 29.4378 16.8346C29.4378 15.4808 30.2047 14.9224 31.0366 14.9252C31.9652 14.9252 32.6138 15.6698 32.6138 16.8242ZM34.662 14.505C34.662 14.2747 34.7823 14.159 35.0248 14.159H35.2781C35.5196 14.159 35.6409 14.2747 35.6409 14.4533V14.7673C35.6408 14.8617 35.6335 14.9559 35.6192 15.0493H35.6409C35.6409 15.0493 36.114 14.0312 37.5138 14.0312C39.0101 14.0312 39.9564 15.164 39.9564 16.812C39.9564 18.5042 38.8899 19.5919 37.4369 19.5919C37.0861 19.6021 36.7393 19.5198 36.4345 19.3539C36.1298 19.188 35.879 18.945 35.7099 18.6518H35.6882C35.7109 18.8047 35.7218 18.9589 35.7207 19.1134V21.2211C35.7207 21.4523 35.5995 21.568 35.3688 21.568H35.0278C34.7852 21.568 34.665 21.4523 34.665 21.2211L34.662 14.505ZM37.2698 18.7129C38.1499 18.7126 38.8751 18.0301 38.8751 16.8242C38.8751 15.6698 38.2265 14.9252 37.2979 14.9252C36.462 14.9252 35.6921 15.4808 35.6921 16.8346C35.697 17.7792 36.2469 18.7126 37.2698 18.7129ZM46.6698 14.033C48.3317 14.033 49.6735 15.1978 49.6735 16.8035C49.6735 18.4092 48.3317 19.5938 46.6698 19.5938C45.0078 19.5938 43.6782 18.4186 43.6782 16.8026C43.6782 15.1866 45.0118 14.033 46.6698 14.033ZM46.6698 18.7129C47.7265 18.7129 48.5839 17.9157 48.5839 16.8035C48.5839 15.6914 47.7265 14.9149 46.6698 14.9149C45.6131 14.9149 44.7556 15.7017 44.7556 16.8026C44.7556 17.9035 45.6249 18.7129 46.6698 18.7129ZM50.964 12.0607C50.7216 12.0613 50.6004 12.1766 50.6004 12.4066V18.019C50.6004 19.352 51.4944 19.509 52.0858 19.509C52.3618 19.509 52.4604 19.3727 52.4604 19.1528V18.9018C52.4637 18.8636 52.4588 18.8251 52.446 18.7888C52.4329 18.7526 52.4124 18.7191 52.3856 18.6906C52.3588 18.6621 52.3262 18.6391 52.2898 18.6231C52.2532 18.607 52.2136 18.5982 52.1737 18.5971C51.9429 18.5765 51.6678 18.4928 51.6678 17.8939V12.4066C51.6678 12.1763 51.5359 12.0607 51.3051 12.0607H50.964ZM53.4196 14.5049C53.4196 14.2745 53.5516 14.1589 53.7824 14.1589H54.1234C54.3658 14.1589 54.4861 14.2745 54.4861 14.5049V19.1217C54.4861 19.353 54.3658 19.4686 54.1234 19.4686H53.7854C53.5546 19.4686 53.4224 19.353 53.4224 19.1217L53.4196 14.5049ZM61.4089 16.8035C61.4089 15.1978 60.0671 14.033 58.4052 14.033C56.7422 14.033 55.4125 15.1866 55.4125 16.8026C55.4125 18.4186 56.7434 19.5938 58.4052 19.5938C60.0671 19.5938 61.4089 18.4092 61.4089 16.8035ZM60.3195 16.8035C60.3195 17.9157 59.4619 18.7129 58.4052 18.7129C57.3604 18.7129 56.4909 17.9035 56.4909 16.8026C56.4909 15.7017 57.3485 14.9149 58.4052 14.9149C59.4619 14.9149 60.3195 15.6914 60.3195 16.8035Z" fill="#4C7CB4"/>
<rect x="109.951" y="11.4456" width="227.756" height="10.125" rx="2.2439" fill="#F6F6F7"/>
<rect x="407.268" y="14.2581" width="17.9512" height="4.5" rx="1" fill="#F6F6F7"/>
<rect x="363.512" y="14.2581" width="17.9512" height="4.5" rx="1" fill="#F6F6F7"/>
<path d="M389.962 16.8526C389.962 16.6094 389.883 16.411 389.725 16.2576C389.567 16.1021 389.289 15.9552 388.89 15.8172C388.395 15.6616 388.047 15.4775 387.848 15.265C387.649 15.0502 387.549 14.773 387.549 14.4334C387.549 14.0762 387.658 13.7869 387.878 13.5656C388.097 13.3421 388.395 13.215 388.772 13.1843V12.5204H389.107V13.1843C389.493 13.2194 389.791 13.364 390.001 13.6182C390.214 13.8724 390.32 14.2175 390.32 14.6536H389.929C389.929 14.3096 389.839 14.0368 389.659 13.8352C389.482 13.6314 389.238 13.5295 388.929 13.5295C388.618 13.5295 388.375 13.6116 388.2 13.776C388.027 13.9381 387.94 14.1551 387.94 14.4268C387.94 14.6898 388.02 14.8957 388.18 15.0448C388.34 15.1916 388.612 15.3307 388.995 15.4622C389.381 15.5915 389.66 15.7164 389.833 15.8369C390.009 15.9552 390.139 16.0966 390.225 16.2609C390.312 16.4231 390.356 16.6181 390.356 16.846C390.356 17.2054 390.243 17.4957 390.017 17.7171C389.794 17.9362 389.486 18.0611 389.094 18.0918V18.7163H388.762V18.0951C388.321 18.0666 387.981 17.9285 387.74 17.6809C387.499 17.4311 387.378 17.0903 387.378 16.6587H387.772C387.772 17.0005 387.872 17.2689 388.072 17.464C388.271 17.6568 388.549 17.7532 388.906 17.7532C389.218 17.7532 389.471 17.6699 389.666 17.5034C389.863 17.3369 389.962 17.1199 389.962 16.8526Z" fill="#4C7CB4"/>
<path d="M4.48779 27H105.463V265.5H8.9756C6.49706 265.5 4.48779 263.491 4.48779 261.012V27Z" fill="#F6F6F7"/>
<rect x="4.76828" y="27.2805" width="100.415" height="21.939" fill="#F6F6F7" stroke="#F6F6F7" stroke-width="0.560976"/>
<rect x="4.76828" y="49.218" width="100.415" height="21.939" fill="#F6F6F7" stroke="#F6F6F7" stroke-width="0.560976"/>
<rect x="4.76828" y="71.1555" width="100.415" height="21.939" fill="#F6F6F7" stroke="#F6F6F7" stroke-width="0.560976"/>
<rect x="4.76828" y="93.093" width="100.415" height="21.939" fill="#F6F6F7" stroke="#F6F6F7" stroke-width="0.560976"/>
<rect x="4.76828" y="115.03" width="100.415" height="21.939" fill="#F6F6F7" stroke="#F6F6F7" stroke-width="0.560976"/>
<rect x="4.76828" y="136.968" width="100.415" height="21.939" fill="#F6F6F7" stroke="#F6F6F7" stroke-width="0.560976"/>
<rect x="4.76828" y="158.905" width="100.415" height="21.939" fill="#F6F6F7" stroke="#F6F6F7" stroke-width="0.560976"/>
<rect x="4.76828" y="180.843" width="100.415" height="21.939" fill="#F6F6F7" stroke="#F6F6F7" stroke-width="0.560976"/>
<path d="M36.5505 44.75V39.1665H38.1266C38.6123 39.1665 39.0418 39.2739 39.4151 39.4887C39.7883 39.7034 40.076 40.0089 40.2779 40.4052C40.4824 40.8014 40.586 41.2565 40.5885 41.7704V42.127C40.5885 42.6537 40.4863 43.1151 40.2818 43.5114C40.0798 43.9076 39.7896 44.2119 39.4113 44.4241C39.0354 44.6362 38.597 44.7449 38.0959 44.75H36.5505ZM37.2868 39.7724V44.1479H38.0614C38.629 44.1479 39.07 43.9715 39.3844 43.6187C39.7014 43.2659 39.8599 42.7636 39.8599 42.1117V41.7857C39.8599 41.1517 39.7104 40.6596 39.4113 40.3093C39.1147 39.9565 38.6929 39.7776 38.1458 39.7724H37.2868ZM44.1549 44.75C44.114 44.6682 44.0808 44.5225 44.0552 44.3128C43.7254 44.6554 43.3317 44.8267 42.8741 44.8267C42.465 44.8267 42.1288 44.7117 41.8655 44.4816C41.6048 44.2489 41.4744 43.9549 41.4744 43.5996C41.4744 43.1675 41.638 42.8326 41.9652 42.5949C42.295 42.3545 42.7578 42.2344 43.3534 42.2344H44.0437V41.9084C44.0437 41.6604 43.9695 41.4636 43.8213 41.3179C43.673 41.1696 43.4544 41.0954 43.1655 41.0954C42.9124 41.0954 42.7002 41.1594 42.5289 41.2872C42.3577 41.415 42.272 41.5697 42.272 41.7512H41.5587C41.5587 41.5441 41.6316 41.3447 41.7773 41.153C41.9256 40.9587 42.125 40.8053 42.3756 40.6928C42.6286 40.5803 42.906 40.5241 43.2077 40.5241C43.6858 40.5241 44.0603 40.6442 44.3313 40.8845C44.6023 41.1223 44.7429 41.4508 44.7531 41.8701V43.7798C44.7531 44.1607 44.8017 44.4637 44.8988 44.6887V44.75H44.1549ZM42.9776 44.2093C43.2 44.2093 43.4109 44.1518 43.6104 44.0367C43.8098 43.9217 43.9542 43.7721 44.0437 43.5881V42.7367H43.4876C42.6184 42.7367 42.1838 42.9911 42.1838 43.4999C42.1838 43.7223 42.258 43.8961 42.4062 44.0214C42.5545 44.1467 42.745 44.2093 42.9776 44.2093ZM48.2811 43.6494C48.2811 43.4577 48.2083 43.3094 48.0626 43.2046C47.9194 43.0972 47.6676 43.0052 47.3071 42.9285C46.9492 42.8518 46.6641 42.7597 46.4519 42.6524C46.2423 42.545 46.0864 42.4172 45.9841 42.2689C45.8844 42.1206 45.8345 41.9442 45.8345 41.7397C45.8345 41.3997 45.9777 41.1121 46.264 40.8769C46.5529 40.6417 46.9211 40.5241 47.3685 40.5241C47.8389 40.5241 48.2198 40.6455 48.5112 40.8884C48.8052 41.1312 48.9522 41.4419 48.9522 41.8202H48.239C48.239 41.6259 48.1559 41.4585 47.9897 41.3179C47.8261 41.1773 47.619 41.107 47.3685 41.107C47.1102 41.107 46.9083 41.1632 46.7626 41.2757C46.6168 41.3882 46.544 41.5352 46.544 41.7167C46.544 41.888 46.6117 42.0171 46.7472 42.104C46.8827 42.1909 47.1269 42.274 47.4797 42.3533C47.835 42.4325 48.1226 42.5271 48.3425 42.637C48.5624 42.747 48.7247 42.8799 48.8295 43.0359C48.9369 43.1892 48.9906 43.3772 48.9906 43.5996C48.9906 43.9703 48.8423 44.2681 48.5457 44.4931C48.2492 44.7155 47.8644 44.8267 47.3915 44.8267C47.0591 44.8267 46.7651 44.7679 46.5095 44.6503C46.2538 44.5327 46.0531 44.3691 45.9074 44.1594C45.7642 43.9473 45.6926 43.7184 45.6926 43.473H46.4021C46.4149 43.7108 46.5095 43.9 46.6859 44.0406C46.8648 44.1786 47.1 44.2476 47.3915 44.2476C47.6599 44.2476 47.8746 44.194 48.0357 44.0866C48.1993 43.9767 48.2811 43.8309 48.2811 43.6494ZM50.6242 41.1031C50.9386 40.7171 51.3477 40.5241 51.8513 40.5241C52.7282 40.5241 53.1705 41.0188 53.1782 42.0081V44.75H52.4687V42.0043C52.4662 41.7052 52.3971 41.484 52.2617 41.3409C52.1287 41.1977 51.9204 41.1261 51.6366 41.1261C51.4065 41.1261 51.2045 41.1875 51.0307 41.3102C50.8568 41.4329 50.7213 41.594 50.6242 41.7934V44.75H49.9148V38.8598H50.6242V41.1031ZM57.7531 42.7214C57.7531 43.3554 57.6074 43.8654 57.3159 44.2515C57.0245 44.635 56.6333 44.8267 56.1425 44.8267C55.6184 44.8267 55.2132 44.6414 54.9268 44.2707L54.8923 44.75H54.2404V38.8598H54.9498V41.0571C55.2362 40.7017 55.6312 40.5241 56.1348 40.5241C56.6384 40.5241 57.0334 40.7145 57.3197 41.0954C57.6086 41.4764 57.7531 41.9979 57.7531 42.66V42.7214ZM57.0436 42.6409C57.0436 42.1577 56.9503 41.7844 56.7637 41.5211C56.5771 41.2578 56.3086 41.1261 55.9584 41.1261C55.4905 41.1261 55.1544 41.3434 54.9498 41.778V43.5727C55.1671 44.0073 55.5059 44.2246 55.9661 44.2246C56.3061 44.2246 56.5707 44.093 56.7599 43.8297C56.949 43.5663 57.0436 43.1701 57.0436 42.6409ZM58.4625 42.637C58.4625 42.2305 58.5418 41.865 58.7003 41.5403C58.8613 41.2156 59.0838 40.9651 59.3675 40.7887C59.6539 40.6123 59.9798 40.5241 60.3454 40.5241C60.9104 40.5241 61.3667 40.7196 61.7144 41.1108C62.0647 41.5019 62.2398 42.0222 62.2398 42.6715V42.7214C62.2398 43.1253 62.1618 43.4884 62.0059 43.8105C61.8525 44.13 61.6313 44.3793 61.3424 44.5583C61.0561 44.7372 60.7263 44.8267 60.3531 44.8267C59.7906 44.8267 59.3343 44.6311 58.984 44.24C58.6364 43.8488 58.4625 43.3311 58.4625 42.6869V42.637ZM59.1758 42.7214C59.1758 43.1816 59.2819 43.551 59.4941 43.8297C59.7088 44.1083 59.9952 44.2476 60.3531 44.2476C60.7135 44.2476 60.9999 44.107 61.2121 43.8258C61.4243 43.542 61.5303 43.1458 61.5303 42.637C61.5303 42.182 61.4217 41.8138 61.2044 41.5326C60.9896 41.2488 60.7033 41.107 60.3454 41.107C59.9952 41.107 59.7127 41.2463 59.4979 41.5249C59.2832 41.8036 59.1758 42.2024 59.1758 42.7214ZM65.6911 44.75C65.6502 44.6682 65.617 44.5225 65.5914 44.3128C65.2616 44.6554 64.8679 44.8267 64.4103 44.8267C64.0012 44.8267 63.6651 44.7117 63.4017 44.4816C63.141 44.2489 63.0106 43.9549 63.0106 43.5996C63.0106 43.1675 63.1742 42.8326 63.5014 42.5949C63.8312 42.3545 64.294 42.2344 64.8896 42.2344H65.5799V41.9084C65.5799 41.6604 65.5058 41.4636 65.3575 41.3179C65.2092 41.1696 64.9906 41.0954 64.7017 41.0954C64.4486 41.0954 64.2364 41.1594 64.0651 41.2872C63.8939 41.415 63.8082 41.5697 63.8082 41.7512H63.0949C63.0949 41.5441 63.1678 41.3447 63.3135 41.153C63.4618 40.9587 63.6612 40.8053 63.9118 40.6928C64.1649 40.5803 64.4422 40.5241 64.7439 40.5241C65.222 40.5241 65.5965 40.6442 65.8675 40.8845C66.1385 41.1223 66.2791 41.4508 66.2893 41.8701V43.7798C66.2893 44.1607 66.3379 44.4637 66.4351 44.6887V44.75H65.6911ZM64.5138 44.2093C64.7362 44.2093 64.9472 44.1518 65.1466 44.0367C65.346 43.9217 65.4904 43.7721 65.5799 43.5881V42.7367H65.0238C64.1546 42.7367 63.72 42.9911 63.72 43.4999C63.72 43.7223 63.7942 43.8961 63.9424 44.0214C64.0907 44.1467 64.2812 44.2093 64.5138 44.2093ZM69.407 41.2373C69.2996 41.2194 69.1833 41.2105 69.0581 41.2105C68.5928 41.2105 68.277 41.4086 68.1109 41.8049V44.75H67.4014V40.6008H68.0917L68.1032 41.0801C68.3358 40.7094 68.6656 40.5241 69.0926 40.5241C69.2306 40.5241 69.3354 40.542 69.407 40.5778V41.2373ZM69.8135 42.6409C69.8135 42.0043 69.9643 41.493 70.266 41.107C70.5677 40.7184 70.9627 40.5241 71.451 40.5241C71.9367 40.5241 72.3215 40.6902 72.6052 41.0226V38.8598H73.3147V44.75H72.6628L72.6282 44.3052C72.3445 44.6529 71.9495 44.8267 71.4433 44.8267C70.9627 44.8267 70.5702 44.6299 70.266 44.2361C69.9643 43.8424 69.8135 43.3286 69.8135 42.6946V42.6409ZM70.5229 42.7214C70.5229 43.1918 70.6201 43.5599 70.8144 43.8258C71.0087 44.0917 71.2771 44.2246 71.6197 44.2246C72.0696 44.2246 72.3982 44.0227 72.6052 43.6187V41.7129C72.393 41.3217 72.0671 41.1261 71.6274 41.1261C71.2797 41.1261 71.0087 41.2603 70.8144 41.5288C70.6201 41.7972 70.5229 42.1948 70.5229 42.7214Z" fill="#4C7CB4"/>
<rect x="35.9024" y="57.9375" width="38.1463" height="4.5" rx="1.12195" fill="white"/>
<rect x="35.9024" y="79.875" width="38.1463" height="4.5" rx="1.12195" fill="white"/>
<rect x="35.9024" y="101.812" width="38.1463" height="4.5" rx="1.12195" fill="white"/>
<rect x="35.9024" y="123.75" width="38.1463" height="4.5" rx="1.12195" fill="white"/>
<rect x="35.9024" y="145.688" width="38.1463" height="4.5" rx="1.12195" fill="white"/>
<rect x="35.9024" y="167.625" width="38.1463" height="4.5" rx="1.12195" fill="white"/>
<rect x="35.9024" y="189.562" width="38.1463" height="4.5" rx="1.12195" fill="white"/>
<rect x="35.9024" y="211.573" width="38.1463" height="4.5" rx="1.12195" fill="white"/>
<rect x="35.9024" y="233.584" width="38.1463" height="4.5" rx="1.12195" fill="white"/>
<path d="M110 27H451V256.512C451 258.991 448.991 261 446.512 261H110V27Z" fill="#F6F6F7"/>
<rect x="229.439" y="40.5" width="101.537" height="45" fill="white"/>
<rect x="138" y="236.813" width="303.488" height="13.5" rx="2.2439" fill="white"/>
<rect x="339.951" y="40.5" width="101.537" height="45" fill="white"/>
<rect x="118.927" y="210.497" width="17.9512" height="4.5" rx="1" fill="white"/>
<rect x="118.927" y="199.247" width="17.9512" height="4.5" rx="1" fill="white"/>
<rect x="118.927" y="187.997" width="17.9512" height="4.5" rx="1" fill="white"/>
<rect x="118.927" y="176.747" width="17.9512" height="4.5" rx="1" fill="white"/>
<rect x="118.927" y="165.497" width="17.9512" height="4.5" rx="1" fill="white"/>
<rect x="118.927" y="154.247" width="17.9512" height="4.5" rx="1" fill="white"/>
<rect x="118.927" y="142.997" width="17.9512" height="4.5" rx="1" fill="white"/>
<rect x="118.927" y="131.747" width="17.9512" height="4.5" rx="1" fill="white"/>
<rect x="118.927" y="120.497" width="17.9512" height="4.5" rx="1" fill="white"/>
<rect x="118.927" y="109.247" width="17.9512" height="4.5" rx="1" fill="white"/>
<rect x="118.927" y="97.9973" width="17.9512" height="4.5" rx="1" fill="white"/>
<path d="M132.743 224.116C132.743 223.936 132.693 223.794 132.592 223.689C132.493 223.581 132.325 223.483 132.086 223.393C131.847 223.303 131.641 223.214 131.468 223.127C131.295 223.037 131.146 222.935 131.021 222.821C130.898 222.705 130.802 222.569 130.731 222.413C130.664 222.258 130.63 222.073 130.63 221.858C130.63 221.488 130.748 221.184 130.985 220.947C131.221 220.711 131.536 220.573 131.928 220.533V219.83H132.454V220.543C132.842 220.598 133.145 220.76 133.364 221.03C133.583 221.297 133.693 221.644 133.693 222.072H132.743C132.743 221.809 132.688 221.613 132.579 221.483C132.471 221.352 132.327 221.286 132.145 221.286C131.965 221.286 131.826 221.338 131.727 221.441C131.629 221.541 131.579 221.682 131.579 221.861C131.579 222.028 131.628 222.161 131.724 222.262C131.821 222.363 131.999 222.466 132.26 222.571C132.523 222.676 132.739 222.776 132.907 222.87C133.076 222.962 133.219 223.068 133.335 223.186C133.451 223.302 133.54 223.436 133.601 223.587C133.662 223.736 133.693 223.91 133.693 224.11C133.693 224.482 133.577 224.784 133.345 225.017C133.112 225.249 132.792 225.386 132.385 225.428V226.082H131.862V225.431C131.413 225.383 131.065 225.224 130.817 224.954C130.571 224.683 130.449 224.322 130.449 223.873H131.399C131.399 224.134 131.46 224.334 131.583 224.474C131.708 224.612 131.886 224.681 132.119 224.681C132.311 224.681 132.464 224.631 132.575 224.53C132.687 224.427 132.743 224.289 132.743 224.116ZM137.558 223.396C137.558 224.058 137.422 224.564 137.148 224.915C136.874 225.265 136.473 225.441 135.945 225.441C135.423 225.441 135.024 225.269 134.748 224.925C134.472 224.581 134.331 224.088 134.324 223.446V222.565C134.324 221.896 134.462 221.389 134.738 221.043C135.017 220.697 135.416 220.523 135.938 220.523C136.46 220.523 136.858 220.695 137.134 221.04C137.411 221.381 137.552 221.873 137.558 222.515V223.396ZM136.609 222.43C136.609 222.033 136.554 221.745 136.444 221.565C136.337 221.384 136.168 221.293 135.938 221.293C135.714 221.293 135.549 221.379 135.442 221.552C135.336 221.723 135.281 221.992 135.274 222.358V223.521C135.274 223.911 135.327 224.202 135.432 224.392C135.539 224.581 135.71 224.675 135.945 224.675C136.177 224.675 136.344 224.584 136.447 224.402C136.55 224.22 136.604 223.942 136.609 223.567V222.43Z" fill="#4C7CB4"/>
<path d="M140.805 94.5V223.594" stroke="#C4C4C4" stroke-width="0.560976"/>
<path d="M140.805 223.312H426.622" stroke="#C4C4C4" stroke-width="0.560976"/>
<path d="M140.805 157.5L182.878 152.199L221.585 141.318L266.463 154.431L304.61 146.061L339.11 152.199L385.671 138.807L423.256 122.625" stroke="#4C7CB4" stroke-width="0.560976"/>
<path d="M140.805 205.875L182.878 200.574L222.146 198L266.463 202.806L304.61 200.574L339.11 200.574H385.951L423.817 208.688" stroke="#FFA41C" stroke-width="0.560976"/>
<path d="M184.239 152.135C184.239 152.756 183.737 153.26 183.117 153.26C182.498 153.26 181.995 152.756 181.995 152.135C181.995 151.513 182.498 151.01 183.117 151.01C183.737 151.01 184.239 151.513 184.239 152.135Z" fill="#4C7CB4"/>
<path d="M183.959 200.51C183.959 200.977 183.581 201.354 183.117 201.354C182.653 201.354 182.276 200.977 182.276 200.51C182.276 200.043 182.653 199.665 183.117 199.665C183.581 199.665 183.959 200.043 183.959 200.51Z" fill="#FFA41C" stroke="#FFA41C" stroke-width="0.560976"/>
<path d="M222.988 141.188C222.988 141.809 222.485 142.312 221.866 142.312C221.246 142.312 220.744 141.809 220.744 141.188C220.744 140.566 221.246 140.062 221.866 140.062C222.485 140.062 222.988 140.566 222.988 141.188Z" fill="#4C7CB4"/>
<path d="M222.707 198C222.707 198.467 222.33 198.845 221.866 198.845C221.402 198.845 221.024 198.467 221.024 198C221.024 197.533 221.402 197.155 221.866 197.155C222.33 197.155 222.707 197.533 222.707 198Z" fill="#FFA41C" stroke="#FFA41C" stroke-width="0.560976"/>
<path d="M267.866 154.688C267.866 155.309 267.364 155.812 266.744 155.812C266.124 155.812 265.622 155.309 265.622 154.688C265.622 154.066 266.124 153.562 266.744 153.562C267.364 153.562 267.866 154.066 267.866 154.688Z" fill="#4C7CB4"/>
<path d="M267.585 203.063C267.585 203.53 267.208 203.907 266.744 203.907C266.28 203.907 265.902 203.53 265.902 203.063C265.902 202.595 266.28 202.218 266.744 202.218C267.208 202.218 267.585 202.595 267.585 203.063Z" fill="#FFA41C" stroke="#FFA41C" stroke-width="0.560976"/>
<path d="M306.012 146.25C306.012 146.871 305.51 147.375 304.89 147.375C304.271 147.375 303.768 146.871 303.768 146.25C303.768 145.629 304.271 145.125 304.89 145.125C305.51 145.125 306.012 145.629 306.012 146.25Z" fill="#4C7CB4"/>
<path d="M305.732 200.25C305.732 200.717 305.354 201.095 304.89 201.095C304.426 201.095 304.049 200.717 304.049 200.25C304.049 199.783 304.426 199.405 304.89 199.405C305.354 199.405 305.732 199.783 305.732 200.25Z" fill="#FFA41C" stroke="#FFA41C" stroke-width="0.560976"/>
<path d="M340.232 151.875C340.232 152.496 339.729 153 339.11 153C338.49 153 337.988 152.496 337.988 151.875C337.988 151.254 338.49 150.75 339.11 150.75C339.729 150.75 340.232 151.254 340.232 151.875Z" fill="#4C7CB4"/>
<path d="M339.951 200.25C339.951 200.717 339.574 201.095 339.11 201.095C338.646 201.095 338.268 200.717 338.268 200.25C338.268 199.783 338.646 199.405 339.11 199.405C339.574 199.405 339.951 199.783 339.951 200.25Z" fill="#FFA41C" stroke="#FFA41C" stroke-width="0.560976"/>
<path d="M386.793 138.938C386.793 139.559 386.29 140.062 385.671 140.062C385.051 140.062 384.549 139.559 384.549 138.938C384.549 138.316 385.051 137.812 385.671 137.812C386.29 137.812 386.793 138.316 386.793 138.938Z" fill="#4C7CB4"/>
<path d="M386.512 200.25C386.512 200.717 386.135 201.095 385.671 201.095C385.207 201.095 384.829 200.717 384.829 200.25C384.829 199.783 385.207 199.405 385.671 199.405C386.135 199.405 386.512 199.783 386.512 200.25Z" fill="#FFA41C" stroke="#FFA41C" stroke-width="0.560976"/>
<path d="M424.378 122.625C424.378 123.246 423.876 123.75 423.256 123.75C422.636 123.75 422.134 123.246 422.134 122.625C422.134 122.004 422.636 121.5 423.256 121.5C423.876 121.5 424.378 122.004 424.378 122.625Z" fill="#4C7CB4"/>
<path d="M424.098 208.688C424.098 209.155 423.72 209.532 423.256 209.532C422.792 209.532 422.415 209.155 422.415 208.688C422.415 208.22 422.792 207.843 423.256 207.843C423.72 207.843 424.098 208.22 424.098 208.688Z" fill="#FFA41C" stroke="#FFA41C" stroke-width="0.560976"/>
<g filter="url(#filter0_d)">
<rect x="99.2927" y="31.7984" width="140.805" height="62.4033" fill="white"/>
<rect x="99.2927" y="31.7984" width="3.11171" height="62.4033" fill="#4C7CB4"/>
<path d="M121.031 55.4404C121.031 55.0667 120.926 54.7704 120.716 54.5516C120.511 54.3282 120.16 54.1231 119.663 53.9362C119.166 53.7493 118.738 53.5647 118.378 53.3824C118.018 53.1955 117.708 52.9836 117.448 52.7465C117.193 52.505 116.992 52.2224 116.846 51.8987C116.705 51.5751 116.634 51.1899 116.634 50.7432C116.634 49.9729 116.88 49.3416 117.373 48.8493C117.865 48.357 118.519 48.0699 119.335 47.9878V46.5246H120.429V48.0083C121.236 48.1223 121.867 48.4596 122.323 49.0202C122.779 49.5763 123.007 50.2988 123.007 51.1876H121.031C121.031 50.6407 120.917 50.2327 120.689 49.9638C120.465 49.6903 120.165 49.5535 119.786 49.5535C119.412 49.5535 119.123 49.6607 118.918 49.8749C118.713 50.0846 118.61 50.3763 118.61 50.7501C118.61 51.0965 118.71 51.3745 118.911 51.5842C119.112 51.7939 119.483 52.0081 120.026 52.2269C120.572 52.4457 121.021 52.6531 121.372 52.8491C121.723 53.0405 122.02 53.2593 122.261 53.5055C122.503 53.7471 122.687 54.0251 122.815 54.3396C122.943 54.6496 123.007 55.012 123.007 55.4267C123.007 56.2016 122.765 56.8307 122.282 57.3138C121.799 57.797 121.133 58.0819 120.285 58.1685V59.5291H119.198V58.1753C118.264 58.075 117.539 57.7446 117.024 57.1839C116.513 56.6187 116.258 55.8689 116.258 54.9345H118.234C118.234 55.4769 118.362 55.894 118.617 56.1857C118.877 56.4728 119.248 56.6164 119.732 56.6164C120.133 56.6164 120.449 56.5116 120.682 56.3019C120.914 56.0877 121.031 55.8005 121.031 55.4404ZM129.146 58.0591H127.17V50.4424L124.812 51.174V49.5672L128.934 48.0904H129.146V58.0591ZM137.748 48.0015V49.6288H137.556C136.663 49.6424 135.943 49.8749 135.396 50.3262C134.853 50.7774 134.527 51.4042 134.418 52.2064C134.947 51.6685 135.614 51.3996 136.421 51.3996C137.287 51.3996 137.976 51.7096 138.486 52.3295C138.997 52.9494 139.252 53.7653 139.252 54.7772C139.252 55.4245 139.111 56.0102 138.828 56.5344C138.55 57.0586 138.153 57.4665 137.638 57.7583C137.128 58.05 136.549 58.1958 135.902 58.1958C134.853 58.1958 134.005 57.8312 133.358 57.1019C132.715 56.3726 132.394 55.3994 132.394 54.1824V53.4713C132.394 52.391 132.597 51.4383 133.003 50.6133C133.413 49.7837 133.999 49.1433 134.76 48.6921C135.526 48.2362 136.412 48.006 137.419 48.0015H137.748ZM135.82 52.9858C135.5 52.9858 135.211 53.0702 134.951 53.2388C134.691 53.4029 134.5 53.6217 134.377 53.8952V54.4969C134.377 55.1578 134.507 55.6752 134.767 56.0489C135.026 56.4181 135.391 56.6028 135.861 56.6028C136.284 56.6028 136.626 56.4364 136.886 56.1036C137.151 55.7663 137.283 55.331 137.283 54.7977C137.283 54.2553 137.151 53.8177 136.886 53.485C136.622 53.1522 136.266 52.9858 135.82 52.9858ZM140.722 53.1636L141.296 48.104H146.875V49.7518H142.917L142.67 51.8919C143.14 51.6412 143.639 51.5158 144.168 51.5158C145.116 51.5158 145.859 51.8098 146.397 52.3978C146.935 52.9858 147.204 53.8086 147.204 54.8661C147.204 55.5088 147.067 56.0854 146.793 56.5959C146.524 57.1019 146.137 57.4962 145.631 57.7788C145.125 58.0568 144.528 58.1958 143.84 58.1958C143.238 58.1958 142.68 58.075 142.165 57.8335C141.649 57.5873 141.242 57.2432 140.941 56.801C140.644 56.3589 140.487 55.8552 140.469 55.29H142.424C142.465 55.7048 142.609 56.0284 142.855 56.2609C143.106 56.4888 143.432 56.6028 143.833 56.6028C144.28 56.6028 144.624 56.4432 144.865 56.1241C145.107 55.8005 145.228 55.3447 145.228 54.7567C145.228 54.1915 145.089 53.7585 144.811 53.4576C144.532 53.1568 144.138 53.0064 143.628 53.0064C143.158 53.0064 142.778 53.1294 142.486 53.3756L142.294 53.5533L140.722 53.1636ZM153.268 58.0591H151.292V50.4424L148.933 51.174V49.5672L153.056 48.0904H153.268V58.0591ZM158.519 52.2064H159.572C160.074 52.2064 160.445 52.0811 160.687 51.8304C160.928 51.5797 161.049 51.2469 161.049 50.8321C161.049 50.431 160.928 50.1188 160.687 49.8954C160.45 49.6721 160.121 49.5604 159.702 49.5604C159.324 49.5604 159.007 49.6652 158.752 49.8749C158.496 50.08 158.369 50.3489 158.369 50.6817H156.393C156.393 50.1621 156.532 49.6971 156.81 49.2869C157.093 48.8721 157.485 48.5485 157.986 48.316C158.492 48.0835 159.048 47.9673 159.654 47.9673C160.707 47.9673 161.532 48.2203 162.129 48.7262C162.726 49.2276 163.025 49.9205 163.025 50.8048C163.025 51.2606 162.886 51.6799 162.608 52.0628C162.33 52.4457 161.965 52.7397 161.514 52.9448C162.075 53.1454 162.492 53.4462 162.765 53.8473C163.043 54.2485 163.182 54.7225 163.182 55.2695C163.182 56.1538 162.859 56.8626 162.211 57.3959C161.569 57.9292 160.716 58.1958 159.654 58.1958C158.661 58.1958 157.847 57.9337 157.213 57.4096C156.584 56.8854 156.27 56.1925 156.27 55.331H158.246C158.246 55.7048 158.385 56.0102 158.663 56.2472C158.945 56.4842 159.292 56.6028 159.702 56.6028C160.172 56.6028 160.539 56.4797 160.803 56.2335C161.072 55.9828 161.206 55.6524 161.206 55.2421C161.206 54.2485 160.659 53.7516 159.565 53.7516H158.519V52.2064ZM166.56 52.2064H167.613C168.114 52.2064 168.486 52.0811 168.727 51.8304C168.969 51.5797 169.09 51.2469 169.09 50.8321C169.09 50.431 168.969 50.1188 168.727 49.8954C168.49 49.6721 168.162 49.5604 167.743 49.5604C167.364 49.5604 167.048 49.6652 166.792 49.8749C166.537 50.08 166.409 50.3489 166.409 50.6817H164.433C164.433 50.1621 164.572 49.6971 164.851 49.2869C165.133 48.8721 165.525 48.5485 166.027 48.316C166.533 48.0835 167.089 47.9673 167.695 47.9673C168.748 47.9673 169.573 48.2203 170.17 48.7262C170.767 49.2276 171.066 49.9205 171.066 50.8048C171.066 51.2606 170.927 51.6799 170.649 52.0628C170.37 52.4457 170.006 52.7397 169.555 52.9448C170.115 53.1454 170.532 53.4462 170.806 53.8473C171.084 54.2485 171.223 54.7225 171.223 55.2695C171.223 56.1538 170.899 56.8626 170.252 57.3959C169.609 57.9292 168.757 58.1958 167.695 58.1958C166.701 58.1958 165.888 57.9337 165.254 57.4096C164.625 56.8854 164.31 56.1925 164.31 55.331H166.286C166.286 55.7048 166.425 56.0102 166.703 56.2472C166.986 56.4842 167.332 56.6028 167.743 56.6028C168.212 56.6028 168.579 56.4797 168.843 56.2335C169.112 55.9828 169.247 55.6524 169.247 55.2421C169.247 54.2485 168.7 53.7516 167.606 53.7516H166.56V52.2064ZM172.775 57.0882C172.775 56.7737 172.88 56.5184 173.089 56.3224C173.304 56.1264 173.57 56.0284 173.889 56.0284C174.213 56.0284 174.48 56.1264 174.689 56.3224C174.904 56.5184 175.011 56.7737 175.011 57.0882C175.011 57.3982 174.906 57.6511 174.696 57.8471C174.487 58.0386 174.218 58.1343 173.889 58.1343C173.566 58.1343 173.299 58.0386 173.089 57.8471C172.88 57.6511 172.775 57.3982 172.775 57.0882ZM178.675 52.2064H179.728C180.23 52.2064 180.601 52.0811 180.843 51.8304C181.084 51.5797 181.205 51.2469 181.205 50.8321C181.205 50.431 181.084 50.1188 180.843 49.8954C180.606 49.6721 180.278 49.5604 179.858 49.5604C179.48 49.5604 179.163 49.6652 178.908 49.8749C178.653 50.08 178.525 50.3489 178.525 50.6817H176.549C176.549 50.1621 176.688 49.6971 176.966 49.2869C177.249 48.8721 177.641 48.5485 178.142 48.316C178.648 48.0835 179.204 47.9673 179.81 47.9673C180.863 47.9673 181.688 48.2203 182.286 48.7262C182.883 49.2276 183.181 49.9205 183.181 50.8048C183.181 51.2606 183.042 51.6799 182.764 52.0628C182.486 52.4457 182.121 52.7397 181.67 52.9448C182.231 53.1454 182.648 53.4462 182.921 53.8473C183.199 54.2485 183.338 54.7225 183.338 55.2695C183.338 56.1538 183.015 56.8626 182.368 57.3959C181.725 57.9292 180.873 58.1958 179.81 58.1958C178.817 58.1958 178.003 57.9337 177.37 57.4096C176.741 56.8854 176.426 56.1925 176.426 55.331H178.402C178.402 55.7048 178.541 56.0102 178.819 56.2472C179.102 56.4842 179.448 56.6028 179.858 56.6028C180.328 56.6028 180.695 56.4797 180.959 56.2335C181.228 55.9828 181.363 55.6524 181.363 55.2421C181.363 54.2485 180.816 53.7516 179.722 53.7516H178.675V52.2064ZM189.506 58.0591H187.53V50.4424L185.171 51.174V49.5672L189.294 48.0904H189.506V58.0591Z" fill="#4C7CB4"/>
<path d="M120.092 72.8701H118.315V77.8005H117.589V72.8701H115.815V72.2699H120.092V72.8701ZM120.237 75.7076C120.237 75.3049 120.315 74.9428 120.472 74.6212C120.632 74.2996 120.852 74.0514 121.133 73.8767C121.417 73.702 121.74 73.6146 122.102 73.6146C122.661 73.6146 123.113 73.8083 123.458 74.1958C123.805 74.5832 123.978 75.0985 123.978 75.7418V75.7911C123.978 76.1912 123.901 76.5508 123.747 76.8699C123.595 77.1864 123.376 77.4333 123.089 77.6106C122.806 77.7879 122.479 77.8765 122.109 77.8765C121.552 77.8765 121.1 77.6828 120.753 77.2953C120.409 76.9079 120.237 76.3951 120.237 75.7569V75.7076ZM120.943 75.7911C120.943 76.2469 121.048 76.6129 121.259 76.8889C121.471 77.1649 121.755 77.3029 122.109 77.3029C122.466 77.3029 122.75 77.1636 122.96 76.8851C123.17 76.604 123.276 76.2115 123.276 75.7076C123.276 75.2568 123.168 74.8922 122.953 74.6136C122.74 74.3325 122.456 74.192 122.102 74.192C121.755 74.192 121.475 74.33 121.262 74.606C121.05 74.882 120.943 75.2771 120.943 75.7911ZM125.813 72.6954V73.6906H126.58V74.2338H125.813V76.7825C125.813 76.9471 125.847 77.0712 125.915 77.1548C125.984 77.2358 126.1 77.2763 126.265 77.2763C126.346 77.2763 126.457 77.2611 126.599 77.2308V77.8005C126.414 77.8512 126.235 77.8765 126.06 77.8765C125.746 77.8765 125.509 77.7815 125.349 77.5916C125.19 77.4017 125.11 77.132 125.11 76.7825V74.2338H124.362V73.6906H125.11V72.6954H125.813ZM129.942 77.8005C129.901 77.7195 129.868 77.5751 129.843 77.3675C129.516 77.7068 129.126 77.8765 128.673 77.8765C128.268 77.8765 127.935 77.7625 127.674 77.5346C127.416 77.3042 127.287 77.013 127.287 76.661C127.287 76.233 127.449 75.9013 127.773 75.6658C128.1 75.4277 128.558 75.3087 129.148 75.3087H129.832V74.9859C129.832 74.7402 129.758 74.5452 129.611 74.4009C129.464 74.254 129.248 74.1806 128.962 74.1806C128.711 74.1806 128.501 74.2439 128.331 74.3705C128.162 74.4971 128.077 74.6503 128.077 74.8301H127.37C127.37 74.625 127.442 74.4275 127.587 74.2376C127.734 74.0451 127.931 73.8932 128.179 73.7817C128.43 73.6703 128.705 73.6146 129.004 73.6146C129.477 73.6146 129.848 73.7336 130.117 73.9717C130.385 74.2072 130.524 74.5326 130.534 74.9479V76.8395C130.534 77.2168 130.583 77.5169 130.679 77.7398V77.8005H129.942ZM128.776 77.2649C128.996 77.2649 129.205 77.208 129.402 77.094C129.6 76.9801 129.743 76.8319 129.832 76.6496V75.8063H129.281C128.42 75.8063 127.989 76.0583 127.989 76.5622C127.989 76.7825 128.063 76.9547 128.21 77.0788C128.357 77.2029 128.545 77.2649 128.776 77.2649ZM132.399 77.8005H131.697V71.9661H132.399V77.8005ZM136.35 77.8005H135.621V72.2699H136.35V77.8005ZM138.241 73.6906L138.264 74.2072C138.578 73.8121 138.989 73.6146 139.495 73.6146C140.364 73.6146 140.802 74.1046 140.809 75.0846V77.8005H140.107V75.0808C140.104 74.7845 140.036 74.5655 139.901 74.4237C139.77 74.2819 139.563 74.211 139.282 74.211C139.054 74.211 138.854 74.2717 138.682 74.3933C138.51 74.5148 138.376 74.6744 138.279 74.8719V77.8005H137.577V73.6906H138.241ZM143.518 77.3029C143.768 77.3029 143.987 77.227 144.175 77.075C144.362 76.9231 144.466 76.7332 144.486 76.5052H145.151C145.138 76.7408 145.057 76.9649 144.908 77.1776C144.758 77.3903 144.558 77.56 144.308 77.6866C144.059 77.8132 143.796 77.8765 143.518 77.8765C142.958 77.8765 142.512 77.6904 142.181 77.3181C141.851 76.9433 141.687 76.4318 141.687 75.7835V75.6658C141.687 75.2657 141.76 74.9099 141.907 74.5984C142.054 74.2869 142.264 74.0451 142.538 73.8729C142.814 73.7007 143.139 73.6146 143.514 73.6146C143.975 73.6146 144.357 73.7526 144.661 74.0286C144.967 74.3047 145.131 74.663 145.151 75.1036H144.486C144.466 74.8377 144.365 74.6199 144.182 74.4503C144.003 74.2781 143.78 74.192 143.514 74.192C143.157 74.192 142.879 74.3211 142.682 74.5794C142.487 74.8352 142.389 75.2062 142.389 75.6924V75.8253C142.389 76.2989 142.487 76.6635 142.682 76.9193C142.877 77.175 143.155 77.3029 143.518 77.3029ZM145.755 75.7076C145.755 75.3049 145.833 74.9428 145.99 74.6212C146.15 74.2996 146.37 74.0514 146.651 73.8767C146.935 73.702 147.258 73.6146 147.62 73.6146C148.18 73.6146 148.632 73.8083 148.976 74.1958C149.323 74.5832 149.496 75.0985 149.496 75.7418V75.7911C149.496 76.1912 149.419 76.5508 149.265 76.8699C149.113 77.1864 148.894 77.4333 148.608 77.6106C148.324 77.7879 147.997 77.8765 147.628 77.8765C147.07 77.8765 146.618 77.6828 146.271 77.2953C145.927 76.9079 145.755 76.3951 145.755 75.7569V75.7076ZM146.461 75.7911C146.461 76.2469 146.566 76.6129 146.777 76.8889C146.989 77.1649 147.273 77.3029 147.628 77.3029C147.985 77.3029 148.268 77.1636 148.478 76.8851C148.689 76.604 148.794 76.2115 148.794 75.7076C148.794 75.2568 148.686 74.8922 148.471 74.6136C148.258 74.3325 147.974 74.192 147.62 74.192C147.273 74.192 146.993 74.33 146.78 74.606C146.568 74.882 146.461 75.2771 146.461 75.7911ZM151.039 73.6906L151.058 74.1464C151.359 73.7919 151.765 73.6146 152.277 73.6146C152.852 73.6146 153.243 73.8349 153.451 74.2755C153.587 74.078 153.765 73.9185 153.982 73.7969C154.203 73.6754 154.462 73.6146 154.761 73.6146C155.663 73.6146 156.121 74.0919 156.136 75.0466V77.8005H155.433V75.0884C155.433 74.7947 155.366 74.5756 155.232 74.4313C155.098 74.2844 154.872 74.211 154.556 74.211C154.295 74.211 154.079 74.2895 153.906 74.4465C153.734 74.6009 153.634 74.8099 153.606 75.0732V77.8005H152.9V75.1074C152.9 74.5098 152.607 74.211 152.022 74.211C151.561 74.211 151.246 74.4072 151.077 74.7997V77.8005H150.374V73.6906H151.039ZM158.905 77.8765C158.348 77.8765 157.895 77.6942 157.545 77.3295C157.196 76.9623 157.021 76.4723 157.021 75.8595V75.7304C157.021 75.3227 157.098 74.9593 157.253 74.6402C157.41 74.3186 157.628 74.0679 157.906 73.8881C158.187 73.7058 158.491 73.6146 158.818 73.6146C159.352 73.6146 159.767 73.7906 160.064 74.1426C160.36 74.4946 160.508 74.9985 160.508 75.6544V75.9469H157.724C157.734 76.352 157.852 76.68 158.077 76.9307C158.305 77.1788 158.594 77.3029 158.943 77.3029C159.191 77.3029 159.402 77.2523 159.574 77.151C159.746 77.0497 159.897 76.9155 160.026 76.7483L160.455 77.0826C160.111 77.6119 159.594 77.8765 158.905 77.8765ZM158.818 74.192C158.534 74.192 158.296 74.2958 158.104 74.5035C157.911 74.7086 157.792 74.9973 157.747 75.3695H159.805V75.3163C159.785 74.9593 159.689 74.6832 159.517 74.4883C159.345 74.2907 159.112 74.192 158.818 74.192Z" fill="#2D3A4B" fill-opacity="0.7"/>
</g>
<defs>
<filter id="filter0_d" x="19.2927" y="1.79836" width="300.805" height="222.403" filterUnits="userSpaceOnUse" color-interpolation-filters="sRGB">
<feFlood flood-opacity="0" result="BackgroundImageFix"/>
<feColorMatrix in="SourceAlpha" type="matrix" values="0 0 0 0 0 0 0 0 0 0 0 0 0 0 0 0 0 0 127 0" result="hardAlpha"/>
<feOffset dy="50"/>
<feGaussianBlur stdDeviation="40"/>
<feColorMatrix type="matrix" values="0 0 0 0 0.243718 0 0 0 0 0.332486 0 0 0 0 0.448566 0 0 0 0.26 0"/>
<feBlend mode="normal" in2="BackgroundImageFix" result="effect1_dropShadow"/>
<feBlend mode="normal" in="SourceGraphic" in2="effect1_dropShadow" result="shape"/>
</filter>
</defs>
</svg>
