<svg width="72" height="72" viewBox="0 0 72 72" fill="none" xmlns="http://www.w3.org/2000/svg">
<rect width="72" height="72" rx="36" fill="#F6F6F7"/>
<path d="M18 53.172L25.172 46H48C49.0609 46 50.0783 45.5786 50.8284 44.8284C51.5786 44.0783 52 43.0609 52 42V24C52 22.9391 51.5786 21.9217 50.8284 21.1716C50.0783 20.4214 49.0609 20 48 20H22C20.9391 20 19.9217 20.4214 19.1716 21.1716C18.4214 21.9217 18 22.9391 18 24V53.172ZM18 56H16V24C16 22.4087 16.6321 20.8826 17.7574 19.7574C18.8826 18.6321 20.4087 18 22 18H48C49.5913 18 51.1174 18.6321 52.2426 19.7574C53.3679 20.8826 54 22.4087 54 24V42C54 43.5913 53.3679 45.1174 52.2426 46.2426C51.1174 47.3679 49.5913 48 48 48H26L18 56ZM24 26H46V28H24V26ZM24 32H46V34H24V32ZM24 38H40V40H24V38Z" fill="url(#paint0_linear)"/>
<defs>
<linearGradient id="paint0_linear" x1="16" y1="37" x2="58.3937" y2="37" gradientUnits="userSpaceOnUse">
<stop stop-color="#4C7CB4"/>
<stop offset="0.286592" stop-color="#658FC1"/>
<stop offset="0.750156" stop-color="#97B7DB"/>
<stop offset="1" stop-color="#DCEDFF"/>
</linearGradient>
</defs>
</svg>
