<svg width="24" height="24" viewBox="0 0 24 24" fill="none" xmlns="http://www.w3.org/2000/svg">
<path fill-rule="evenodd" clip-rule="evenodd" d="M15.6368 4.674C14.688 4.6305 14.403 4.6215 12 4.6215C9.597 4.6215 9.312 4.6305 8.36325 4.674C7.79262 4.68077 7.2274 4.78555 6.69225 4.98375C6.304 5.13352 5.95141 5.36291 5.65716 5.65716C5.36291 5.95141 5.13352 6.304 4.98375 6.69225C4.78555 7.2274 4.68077 7.79262 4.674 8.36325C4.6305 9.312 4.6215 9.597 4.6215 12C4.6215 14.403 4.6305 14.688 4.674 15.6368C4.68077 16.2074 4.78555 16.7726 4.98375 17.3077C5.13352 17.696 5.36291 18.0486 5.65716 18.3428C5.95141 18.6371 6.304 18.8665 6.69225 19.0163C7.2274 19.2145 7.79262 19.3192 8.36325 19.326C9.312 19.3695 9.597 19.3785 12 19.3785C14.403 19.3785 14.688 19.3695 15.6368 19.326C16.2074 19.3192 16.7726 19.2145 17.3077 19.0163C17.696 18.8665 18.0486 18.6371 18.3428 18.3428C18.6371 18.0486 18.8665 17.696 19.0163 17.3077C19.2145 16.7726 19.3192 16.2074 19.326 15.6368C19.3695 14.688 19.3785 14.4045 19.3785 12.0007C19.3785 9.597 19.3695 9.312 19.326 8.36325C19.3192 7.79262 19.2145 7.2274 19.0163 6.69225C18.8665 6.304 18.6371 5.95141 18.3428 5.65716C18.0486 5.36291 17.696 5.13352 17.3077 4.98375C16.7726 4.78555 16.2074 4.68077 15.6368 4.674ZM8.289 3.054C9.249 3.0105 9.55575 3 12 3C14.445 3 14.7503 3.00975 15.7103 3.05475C16.4569 3.0695 17.1956 3.21075 17.895 3.4725C18.493 3.70372 19.036 4.05733 19.4893 4.51066C19.9427 4.96399 20.2963 5.50704 20.5275 6.105C20.7894 6.80412 20.9309 7.54258 20.946 8.289C20.9895 9.249 21 9.555 21 12C21 14.445 20.9895 14.7503 20.946 15.7103C20.9313 16.4569 20.79 17.1956 20.5282 17.895C20.297 18.493 19.9434 19.036 19.4901 19.4893C19.0368 19.9427 18.4937 20.2963 17.8958 20.5275C17.1964 20.7895 16.4577 20.931 15.711 20.946C14.751 20.9895 14.4443 21 12 21C9.55575 21 9.24975 20.9895 8.28975 20.946C7.54308 20.931 6.80435 20.7895 6.105 20.5275C5.50704 20.2963 4.96399 19.9427 4.51066 19.4893C4.05733 19.036 3.70372 18.493 3.4725 17.895C3.21058 17.1959 3.06907 16.4574 3.054 15.711C3.0105 14.751 3 14.445 3 12C3 9.555 3.0105 9.24975 3.054 8.28975C3.06899 7.54308 3.21049 6.80435 3.4725 6.105C3.70372 5.50704 4.05733 4.96399 4.51066 4.51066C4.96399 4.05733 5.50704 3.70372 6.105 3.4725C6.80412 3.21058 7.54258 3.06907 8.289 3.054ZM16.8045 8.27548C17.401 8.27548 17.8845 7.79195 17.8845 7.19548C17.8845 6.59901 17.401 6.11548 16.8045 6.11548C16.208 6.11548 15.7245 6.59901 15.7245 7.19548C15.7245 7.79195 16.208 8.27548 16.8045 8.27548ZM12 7.37842C11.0859 7.37842 10.1924 7.64946 9.43241 8.15728C8.67241 8.6651 8.08006 9.38688 7.73027 10.2313C7.38048 11.0758 7.28896 12.005 7.46728 12.9015C7.6456 13.798 8.08576 14.6215 8.73209 15.2678C9.37842 15.9141 10.2019 16.3543 11.0984 16.5326C11.9949 16.7109 12.9241 16.6194 13.7686 16.2696C14.613 15.9198 15.3348 15.3275 15.8426 14.5675C16.3504 13.8075 16.6215 12.914 16.6215 11.9999C16.6215 10.7742 16.1346 9.59872 15.2679 8.73202C14.4012 7.86532 13.2257 7.37842 12 7.37842ZM12 14.9999C11.4066 14.9999 10.8266 14.824 10.3333 14.4943C9.83992 14.1647 9.4554 13.6961 9.22834 13.148C9.00128 12.5998 8.94187 11.9966 9.05762 11.4146C9.17338 10.8327 9.4591 10.2982 9.87866 9.8786C10.2982 9.45904 10.8328 9.17332 11.4147 9.05756C11.9967 8.94181 12.5999 9.00122 13.148 9.22828C13.6962 9.45534 14.1647 9.83986 14.4944 10.3332C14.824 10.8266 15 11.4066 15 11.9999C15 12.7956 14.6839 13.5586 14.1213 14.1212C13.5587 14.6838 12.7956 14.9999 12 14.9999Z" fill="#2D3A4B"/>
</svg>
