<svg width="72" height="72" viewBox="0 0 72 72" fill="none" xmlns="http://www.w3.org/2000/svg">
<rect width="72" height="72" rx="36" fill="white"/>
<path d="M35.9999 15.8569C45.2314 15.8569 52.7142 23.3398 52.7142 32.5712C52.7142 39.6341 47.7514 47.3312 37.9542 55.7449C37.4095 56.2129 36.7149 56.4699 35.9967 56.4693C35.2786 56.4687 34.5844 56.2104 34.0405 55.7415L33.3925 55.1792C24.0291 46.9849 19.2856 39.4764 19.2856 32.5712C19.2856 23.3398 26.7685 15.8569 35.9999 15.8569ZM35.9999 18.4284C32.249 18.4284 28.6517 19.9184 25.9994 22.5707C23.3471 25.223 21.8571 28.8203 21.8571 32.5712C21.8571 38.5746 26.2251 45.4918 35.0811 53.2404L35.7205 53.7941C35.7983 53.8609 35.8974 53.8977 35.9999 53.8977C36.1025 53.8977 36.2016 53.8609 36.2794 53.7941C45.5639 45.8192 50.1428 38.7169 50.1428 32.5712C50.1428 30.714 49.777 28.8749 49.0662 27.159C48.3555 25.4431 47.3137 23.884 46.0004 22.5707C44.6872 21.2574 43.1281 20.2157 41.4122 19.5049C39.6963 18.7942 37.8572 18.4284 35.9999 18.4284ZM35.9999 26.1426C37.7049 26.1426 39.34 26.8199 40.5456 28.0255C41.7512 29.2311 42.4285 30.8663 42.4285 32.5712C42.4285 34.2762 41.7512 35.9113 40.5456 37.1169C39.34 38.3225 37.7049 38.9998 35.9999 38.9998C34.295 38.9998 32.6598 38.3225 31.4542 37.1169C30.2487 35.9113 29.5714 34.2762 29.5714 32.5712C29.5714 30.8663 30.2487 29.2311 31.4542 28.0255C32.6598 26.8199 34.295 26.1426 35.9999 26.1426ZM35.9999 28.7141C34.977 28.7141 33.9959 29.1205 33.2725 29.8438C32.5492 30.5672 32.1428 31.5482 32.1428 32.5712C32.1428 33.5942 32.5492 34.5753 33.2725 35.2986C33.9959 36.022 34.977 36.4284 35.9999 36.4284C37.0229 36.4284 38.004 36.022 38.7273 35.2986C39.4507 34.5753 39.8571 33.5942 39.8571 32.5712C39.8571 31.5482 39.4507 30.5672 38.7273 29.8438C38.004 29.1205 37.0229 28.7141 35.9999 28.7141Z" fill="url(#paint0_linear)"/>
<defs>
<linearGradient id="paint0_linear" x1="19.2856" y1="36.1631" x2="56.5794" y2="36.1631" gradientUnits="userSpaceOnUse">
<stop stop-color="#4C7CB4"/>
<stop offset="0.286592" stop-color="#658FC1"/>
<stop offset="0.750156" stop-color="#97B7DB"/>
<stop offset="1" stop-color="#DCEDFF"/>
</linearGradient>
</defs>
</svg>
