<svg width="460" height="284" viewBox="0 0 460 284" fill="none" xmlns="http://www.w3.org/2000/svg">
<rect x="2.2439" y="2.2439" width="455.512" height="265.512" rx="6.73171" fill="white" stroke="#E6E8EA" stroke-width="4.4878"/>
<path d="M4.48779 8.9878C4.48779 6.50926 6.49705 4.5 8.9756 4.5H451.024C453.503 4.5 455.512 6.50926 455.512 8.9878V29.8125H4.48779V8.9878Z" fill="white"/>
<path d="M414.006 14.8809C413.077 14.8809 412.323 15.6374 412.323 16.5684V17.3812C412.323 17.5527 412.25 17.8143 412.163 17.9605L411.84 18.4977C411.641 18.8296 411.779 19.198 412.143 19.3218C413.352 19.7268 414.656 19.7268 415.865 19.3218C416.205 19.2093 416.353 18.8071 416.168 18.4977L415.846 17.9605C415.761 17.8143 415.689 17.5527 415.689 17.3812V16.5684C415.689 15.6402 414.931 14.8809 414.006 14.8809Z" stroke="#2CA01C" stroke-width="0.280488" stroke-miterlimit="10" stroke-linecap="round"/>
<path d="M414.524 14.9615C414.438 14.9363 414.348 14.9167 414.255 14.9054C413.986 14.8718 413.728 14.8914 413.487 14.9615C413.568 14.754 413.77 14.6081 414.006 14.6081C414.241 14.6081 414.443 14.754 414.524 14.9615Z" stroke="#2CA01C" stroke-width="0.280488" stroke-miterlimit="10" stroke-linecap="round" stroke-linejoin="round"/>
<path d="M414.847 19.4231C414.847 19.8872 414.468 20.2668 414.006 20.2668C413.776 20.2668 413.562 20.1712 413.411 20.0193C413.26 19.8675 413.164 19.6537 413.164 19.4231" stroke="#2CA01C" stroke-width="0.280488" stroke-miterlimit="10"/>
<path d="M401.098 16.875V17.7187C401.098 18.8437 400.537 19.4062 399.415 19.4062H399.274C399.187 19.4062 399.103 19.4484 399.05 19.5187L398.629 20.0812C398.444 20.3287 398.141 20.3287 397.956 20.0812L397.535 19.5187C397.491 19.4569 397.387 19.4062 397.311 19.4062H397.171C396.049 19.4062 395.488 19.125 395.488 17.7187V16.3125C395.488 15.1875 396.049 14.625 397.171 14.625H398.854" stroke="#2CA01C" stroke-width="0.280488" stroke-miterlimit="10" stroke-linecap="round" stroke-linejoin="round"/>
<path d="M400.396 16.0312C400.784 16.0312 401.098 15.7165 401.098 15.3281C401.098 14.9398 400.784 14.625 400.396 14.625C400.009 14.625 399.695 14.9398 399.695 15.3281C399.695 15.7165 400.009 16.0312 400.396 16.0312Z" stroke="#2CA01C" stroke-width="0.280488" stroke-linecap="round" stroke-linejoin="round"/>
<path d="M399.413 17.1555H399.416" stroke="#2CA01C" stroke-width="0.560976" stroke-linecap="round" stroke-linejoin="round"/>
<path d="M398.291 17.1555H398.294" stroke="#2CA01C" stroke-width="0.560976" stroke-linecap="round" stroke-linejoin="round"/>
<path d="M397.169 17.1555H397.171" stroke="#2CA01C" stroke-width="0.560976" stroke-linecap="round" stroke-linejoin="round"/>
<path d="M429.707 17.4375C430.482 17.4375 431.11 16.8079 431.11 16.0312C431.11 15.2546 430.482 14.625 429.707 14.625C428.933 14.625 428.305 15.2546 428.305 16.0312C428.305 16.8079 428.933 17.4375 429.707 17.4375Z" stroke="#2CA01C" stroke-width="0.280488" stroke-linecap="round" stroke-linejoin="round"/>
<path d="M432.117 20.25C432.117 19.1616 431.037 18.2812 429.707 18.2812C428.378 18.2812 427.298 19.1616 427.298 20.25" stroke="#2CA01C" stroke-width="0.280488" stroke-linecap="round" stroke-linejoin="round"/>
<rect x="368" y="15.1875" width="17.9512" height="4.5" rx="2.2439" fill="#F6F6F7"/>
<rect x="345.561" y="15.1875" width="17.9512" height="4.5" rx="2.2439" fill="#F6F6F7"/>
<rect x="323.122" y="15.1875" width="17.9512" height="4.5" rx="2.2439" fill="#F6F6F7"/>
<path d="M34.4186 24.548C38.5561 24.548 41.9103 21.3193 41.9103 17.3365C41.9103 13.3537 38.5561 10.125 34.4186 10.125C30.281 10.125 26.9268 13.3537 26.9268 17.3365C26.9268 21.3193 30.281 24.548 34.4186 24.548Z" fill="#2CA01C"/>
<path d="M29.007 17.3365C29.007 18.8852 30.3112 20.1412 31.9206 20.1412H32.3369V19.0989H31.9206C30.9108 19.0989 30.0892 18.3084 30.0892 17.3365C30.0892 16.3642 30.9108 15.5737 31.9206 15.5737H32.9207V21.0223C32.9207 21.5976 33.4049 22.0636 34.0029 22.0636V14.5319H31.9206C30.3112 14.5319 29.007 15.7873 29.007 17.3365ZM36.9165 14.5319H36.5003V15.5742H36.9165C37.9264 15.5742 38.748 16.3647 38.748 17.3365C38.748 18.3089 37.9264 19.0994 36.9165 19.0994H35.9165V13.6507C35.9165 13.0755 35.4322 12.6094 34.8337 12.6094V20.1412H36.9165C38.5254 20.1412 39.8302 18.8857 39.8302 17.3365C39.8302 15.7884 38.5254 14.5319 36.9165 14.5319Z" fill="white"/>
<rect x="4.48779" y="34.3126" width="77.4146" height="22.5" fill="#F6F6F7"/>
<rect x="4.48779" y="56.2499" width="77.4146" height="23.0625" fill="white"/>
<rect x="4.48779" y="78.75" width="77.4146" height="22.5" fill="white"/>
<rect x="4.48779" y="100.687" width="77.4146" height="22.5" fill="white"/>
<rect x="4.48779" y="122.625" width="77.4146" height="22.5" fill="white"/>
<rect x="4.48779" y="144.562" width="77.4146" height="23.0625" fill="white"/>
<rect x="4.48779" y="167.062" width="77.4146" height="22.5" fill="white"/>
<rect x="4.48779" y="189" width="77.4146" height="22.5" fill="white"/>
<path d="M24.77 48.0626V42.4791H26.3461C26.8319 42.4791 27.2614 42.5865 27.6346 42.8012C28.0079 43.016 28.2955 43.3215 28.4974 43.7177C28.702 44.114 28.8055 44.5691 28.8081 45.0829V45.4396C28.8081 45.9662 28.7058 46.4277 28.5013 46.8239C28.2993 47.2202 28.0092 47.5244 27.6308 47.7366C27.255 47.9488 26.8165 48.0574 26.3155 48.0626H24.77ZM25.5063 43.085V47.4605H26.2809C26.8485 47.4605 27.2895 47.2841 27.6039 46.9313C27.921 46.5785 28.0795 46.0761 28.0795 45.4242V45.0983C28.0795 44.4642 27.9299 43.9721 27.6308 43.6219C27.3342 43.2691 26.9124 43.0901 26.3653 43.085H25.5063ZM32.3744 48.0626C32.3335 47.9808 32.3003 47.835 32.2747 47.6254C31.9449 47.968 31.5512 48.1393 31.0936 48.1393C30.6846 48.1393 30.3484 48.0242 30.0851 47.7941C29.8243 47.5615 29.6939 47.2675 29.6939 46.9121C29.6939 46.4801 29.8575 46.1452 30.1848 45.9074C30.5146 45.6671 30.9773 45.5469 31.573 45.5469H32.2632V45.221C32.2632 44.973 32.1891 44.7761 32.0408 44.6304C31.8925 44.4821 31.6739 44.408 31.385 44.408C31.132 44.408 30.9198 44.4719 30.7485 44.5997C30.5772 44.7276 30.4915 44.8822 30.4915 45.0638H29.7783C29.7783 44.8567 29.8511 44.6573 29.9969 44.4655C30.1451 44.2712 30.3445 44.1178 30.5951 44.0053C30.8482 43.8929 31.1256 43.8366 31.4272 43.8366C31.9053 43.8366 32.2798 43.9568 32.5508 44.1971C32.8218 44.4348 32.9624 44.7634 32.9727 45.1826V47.0924C32.9727 47.4733 33.0212 47.7762 33.1184 48.0012V48.0626H32.3744ZM31.1971 47.5219C31.4196 47.5219 31.6305 47.4643 31.8299 47.3493C32.0293 47.2342 32.1737 47.0847 32.2632 46.9006V46.0493H31.7072C30.838 46.0493 30.4033 46.3037 30.4033 46.8124C30.4033 47.0348 30.4775 47.2087 30.6258 47.334C30.774 47.4592 30.9645 47.5219 31.1971 47.5219ZM36.5007 46.962C36.5007 46.7702 36.4278 46.622 36.2821 46.5171C36.1389 46.4098 35.8871 46.3177 35.5266 46.241C35.1687 46.1643 34.8837 46.0723 34.6715 45.9649C34.4618 45.8576 34.3059 45.7297 34.2036 45.5814C34.1039 45.4332 34.0541 45.2568 34.0541 45.0522C34.0541 44.7122 34.1972 44.4246 34.4836 44.1894C34.7725 43.9542 35.1406 43.8366 35.588 43.8366C36.0584 43.8366 36.4393 43.9581 36.7308 44.2009C37.0248 44.4438 37.1718 44.7544 37.1718 45.1328H36.4585C36.4585 44.9385 36.3754 44.771 36.2092 44.6304C36.0456 44.4898 35.8385 44.4195 35.588 44.4195C35.3298 44.4195 35.1278 44.4758 34.9821 44.5882C34.8364 44.7007 34.7635 44.8477 34.7635 45.0292C34.7635 45.2005 34.8313 45.3296 34.9667 45.4166C35.1022 45.5035 35.3464 45.5866 35.6992 45.6658C36.0545 45.7451 36.3422 45.8397 36.562 45.9496C36.7819 46.0595 36.9442 46.1925 37.049 46.3484C37.1564 46.5018 37.2101 46.6897 37.2101 46.9121C37.2101 47.2828 37.0618 47.5807 36.7653 47.8056C36.4687 48.028 36.0839 48.1393 35.611 48.1393C35.2786 48.1393 34.9846 48.0805 34.729 47.9629C34.4733 47.8453 34.2726 47.6816 34.1269 47.472C33.9838 47.2598 33.9122 47.031 33.9122 46.7856H34.6216C34.6344 47.0233 34.729 47.2125 34.9054 47.3531C35.0843 47.4912 35.3195 47.5602 35.611 47.5602C35.8794 47.5602 36.0942 47.5065 36.2552 47.3991C36.4189 47.2892 36.5007 47.1435 36.5007 46.962ZM38.8437 44.4157C39.1582 44.0296 39.5672 43.8366 40.0709 43.8366C40.9477 43.8366 41.39 44.3313 41.3977 45.3207V48.0626H40.6883V45.3168C40.6857 45.0177 40.6167 44.7966 40.4812 44.6534C40.3482 44.5103 40.1399 44.4387 39.8561 44.4387C39.626 44.4387 39.4241 44.5 39.2502 44.6228C39.0764 44.7455 38.9409 44.9065 38.8437 45.1059V48.0626H38.1343V42.1723H38.8437V44.4157ZM45.9726 46.034C45.9726 46.668 45.8269 47.178 45.5354 47.564C45.244 47.9475 44.8528 48.1393 44.362 48.1393C43.8379 48.1393 43.4327 47.9539 43.1464 47.5832L43.1118 48.0626H42.4599V42.1723H43.1694V44.3697C43.4557 44.0143 43.8507 43.8366 44.3543 43.8366C44.858 43.8366 45.2529 44.0271 45.5393 44.408C45.8282 44.7889 45.9726 45.3105 45.9726 45.9726V46.034ZM45.2632 45.9534C45.2632 45.4702 45.1699 45.097 44.9832 44.8337C44.7966 44.5703 44.5282 44.4387 44.1779 44.4387C43.7101 44.4387 43.3739 44.656 43.1694 45.0906V46.8853C43.3867 47.3199 43.7254 47.5372 44.1856 47.5372C44.5256 47.5372 44.7902 47.4055 44.9794 47.1422C45.1686 46.8789 45.2632 46.4826 45.2632 45.9534ZM46.682 45.9496C46.682 45.5431 46.7613 45.1775 46.9198 44.8528C47.0809 44.5282 47.3033 44.2776 47.5871 44.1012C47.8734 43.9248 48.1993 43.8366 48.5649 43.8366C49.1299 43.8366 49.5863 44.0322 49.9339 44.4233C50.2842 44.8145 50.4593 45.3347 50.4593 45.9841V46.034C50.4593 46.4379 50.3813 46.8009 50.2254 47.123C50.072 47.4426 49.8509 47.6919 49.562 47.8708C49.2756 48.0498 48.9458 48.1393 48.5726 48.1393C48.0102 48.1393 47.5538 47.9437 47.2036 47.5525C46.8559 47.1614 46.682 46.6437 46.682 45.9994V45.9496ZM47.3953 46.034C47.3953 46.4941 47.5014 46.8635 47.7136 47.1422C47.9284 47.4209 48.2147 47.5602 48.5726 47.5602C48.9331 47.5602 49.2194 47.4196 49.4316 47.1384C49.6438 46.8546 49.7499 46.4583 49.7499 45.9496C49.7499 45.4945 49.6412 45.1264 49.4239 44.8452C49.2092 44.5614 48.9228 44.4195 48.5649 44.4195C48.2147 44.4195 47.9322 44.5588 47.7174 44.8375C47.5027 45.1162 47.3953 45.515 47.3953 46.034ZM53.9106 48.0626C53.8697 47.9808 53.8365 47.835 53.8109 47.6254C53.4811 47.968 53.0874 48.1393 52.6298 48.1393C52.2208 48.1393 51.8846 48.0242 51.6213 47.7941C51.3605 47.5615 51.2301 47.2675 51.2301 46.9121C51.2301 46.4801 51.3937 46.1452 51.721 45.9074C52.0508 45.6671 52.5135 45.5469 53.1092 45.5469H53.7994V45.221C53.7994 44.973 53.7253 44.7761 53.577 44.6304C53.4287 44.4821 53.2101 44.408 52.9213 44.408C52.6682 44.408 52.456 44.4719 52.2847 44.5997C52.1134 44.7276 52.0277 44.8822 52.0277 45.0638H51.3145C51.3145 44.8567 51.3873 44.6573 51.5331 44.4655C51.6813 44.2712 51.8807 44.1178 52.1313 44.0053C52.3844 43.8929 52.6618 43.8366 52.9634 43.8366C53.4415 43.8366 53.816 43.9568 54.087 44.1971C54.358 44.4348 54.4986 44.7634 54.5089 45.1826V47.0924C54.5089 47.4733 54.5574 47.7762 54.6546 48.0012V48.0626H53.9106ZM52.7333 47.5219C52.9558 47.5219 53.1667 47.4643 53.3661 47.3493C53.5655 47.2342 53.7099 47.0847 53.7994 46.9006V46.0493H53.2434C52.3742 46.0493 51.9395 46.3037 51.9395 46.8124C51.9395 47.0348 52.0137 47.2087 52.162 47.334C52.3102 47.4592 52.5007 47.5219 52.7333 47.5219ZM57.6265 44.5499C57.5192 44.532 57.4028 44.523 57.2776 44.523C56.8123 44.523 56.4966 44.7212 56.3304 45.1174V48.0626H55.6209V43.9133H56.3112L56.3227 44.3927C56.5554 44.022 56.8852 43.8366 57.3121 43.8366C57.4501 43.8366 57.555 43.8545 57.6265 43.8903V44.5499ZM58.033 45.9534C58.033 45.3168 58.1839 44.8055 58.4855 44.4195C58.7872 44.0309 59.1822 43.8366 59.6705 43.8366C60.1562 43.8366 60.541 44.0028 60.8248 44.3351V42.1723H61.5342V48.0626H60.8823L60.8478 47.6177C60.564 47.9654 60.169 48.1393 59.6628 48.1393C59.1822 48.1393 58.7898 47.9424 58.4855 47.5487C58.1839 47.155 58.033 46.6411 58.033 46.0071V45.9534ZM58.7425 46.034C58.7425 46.5044 58.8396 46.8725 59.0339 47.1384C59.2282 47.4043 59.4966 47.5372 59.8392 47.5372C60.2892 47.5372 60.6177 47.3352 60.8248 46.9313V45.0254C60.6126 44.6343 60.2866 44.4387 59.8469 44.4387C59.4992 44.4387 59.2282 44.5729 59.0339 44.8413C58.8396 45.1098 58.7425 45.5073 58.7425 46.034Z" fill="#2D3A4B" fill-opacity="0.7"/>
<rect x="28.6098" y="65.25" width="29.1707" height="4.5" rx="1.12195" fill="#E6E8EA"/>
<rect x="28.6098" y="87.7499" width="29.1707" height="4.5" rx="1.12195" fill="#E6E8EA"/>
<rect x="28.6098" y="109.688" width="29.1707" height="4.5" rx="1.12195" fill="#E6E8EA"/>
<rect x="28.6098" y="131.625" width="29.1707" height="4.5" rx="1.12195" fill="#E6E8EA"/>
<rect x="28.6098" y="153.562" width="29.1707" height="5.0625" rx="1.12195" fill="#E6E8EA"/>
<rect x="28.6098" y="176.062" width="29.1707" height="4.5" rx="1.12195" fill="#E6E8EA"/>
<rect x="28.6098" y="198" width="29.1707" height="4.5" rx="1.12195" fill="#E6E8EA"/>
<rect x="4.48779" y="34.3126" width="2.2439" height="21.9375" fill="#2CA01C"/>
<rect x="104.341" y="34.3126" width="104.902" height="79.875" rx="2" fill="#F6F6F7"/>
<path d="M109.818 42.2512V43.8125H109.292V39.8243H110.763C111.2 39.8243 111.541 39.9357 111.788 40.1585C112.036 40.3813 112.16 40.6762 112.16 41.0432C112.16 41.4304 112.039 41.7289 111.796 41.9389C111.555 42.1471 111.209 42.2512 110.758 42.2512H109.818ZM109.818 41.8211H110.763C111.044 41.8211 111.26 41.7554 111.41 41.6239C111.559 41.4906 111.634 41.2989 111.634 41.0487C111.634 40.8113 111.559 40.6214 111.41 40.479C111.26 40.3365 111.054 40.2626 110.793 40.2571H109.818V41.8211ZM114.184 41.3034C114.108 41.2907 114.025 41.2843 113.935 41.2843C113.603 41.2843 113.377 41.4258 113.258 41.7088V43.8125H112.752V40.8488H113.245L113.253 41.1911C113.419 40.9264 113.655 40.794 113.96 40.794C114.058 40.794 114.133 40.8068 114.184 40.8323V41.3034ZM114.464 42.3032C114.464 42.0129 114.52 41.7518 114.634 41.5198C114.749 41.2879 114.907 41.109 115.11 40.983C115.315 40.857 115.547 40.794 115.809 40.794C116.212 40.794 116.538 40.9337 116.786 41.2131C117.037 41.4924 117.162 41.8641 117.162 42.3279V42.3635C117.162 42.652 117.106 42.9113 116.995 43.1414C116.885 43.3697 116.727 43.5477 116.521 43.6755C116.316 43.8034 116.081 43.8673 115.814 43.8673C115.412 43.8673 115.086 43.7276 114.836 43.4482C114.588 43.1688 114.464 42.799 114.464 42.3388V42.3032ZM114.973 42.3635C114.973 42.6922 115.049 42.9561 115.201 43.1551C115.354 43.3542 115.558 43.4537 115.814 43.4537C116.072 43.4537 116.276 43.3532 116.428 43.1524C116.579 42.9497 116.655 42.6666 116.655 42.3032C116.655 41.9782 116.577 41.7152 116.422 41.5144C116.269 41.3117 116.064 41.2103 115.809 41.2103C115.558 41.2103 115.357 41.3098 115.203 41.5089C115.05 41.7079 114.973 41.9928 114.973 42.3635ZM117.967 43.8125V41.2404H117.499V40.8488H117.967V40.5968C117.967 40.2662 118.061 40.0087 118.249 39.8243C118.439 39.6399 118.707 39.5477 119.052 39.5477C119.256 39.5477 119.515 39.6034 119.827 39.7147L119.742 40.1421C119.514 40.0507 119.296 40.0051 119.09 40.0051C118.873 40.0051 118.716 40.0544 118.619 40.153C118.524 40.2498 118.477 40.3959 118.477 40.5913V40.8488H119.082V41.2404H118.477V43.8125H117.967ZM120.079 43.8125H119.569V40.8488H120.079V43.8125ZM121.591 40.1311V40.8488H122.144V41.2404H121.591V43.0784C121.591 43.1971 121.616 43.2866 121.665 43.3468C121.714 43.4053 121.798 43.4345 121.917 43.4345C121.975 43.4345 122.056 43.4235 122.158 43.4016V43.8125C122.025 43.849 121.895 43.8673 121.769 43.8673C121.543 43.8673 121.372 43.7988 121.257 43.6618C121.142 43.5249 121.084 43.3304 121.084 43.0784V41.2404H120.545V40.8488H121.084V40.1311H121.591ZM124.231 44.1549H123.796L125.461 39.8243H125.894L124.231 44.1549ZM128.442 43.3825H130.332V43.8125H127.913V39.8243H128.442V43.3825ZM130.718 42.3032C130.718 42.0129 130.774 41.7518 130.888 41.5198C131.003 41.2879 131.161 41.109 131.364 40.983C131.569 40.857 131.802 40.794 132.063 40.794C132.466 40.794 132.792 40.9337 133.041 41.2131C133.291 41.4924 133.416 41.8641 133.416 42.3279V42.3635C133.416 42.652 133.36 42.9113 133.249 43.1414C133.139 43.3697 132.981 43.5477 132.775 43.6755C132.57 43.8034 132.335 43.8673 132.068 43.8673C131.666 43.8673 131.34 43.7276 131.09 43.4482C130.842 43.1688 130.718 42.799 130.718 42.3388V42.3032ZM131.227 42.3635C131.227 42.6922 131.303 42.9561 131.455 43.1551C131.608 43.3542 131.812 43.4537 132.068 43.4537C132.326 43.4537 132.53 43.3532 132.682 43.1524C132.833 42.9497 132.909 42.6666 132.909 42.3032C132.909 41.9782 132.831 41.7152 132.676 41.5144C132.523 41.3117 132.318 41.2103 132.063 41.2103C131.812 41.2103 131.611 41.3098 131.457 41.5089C131.304 41.7079 131.227 41.9928 131.227 42.3635ZM135.777 43.0264C135.777 42.8894 135.725 42.7835 135.621 42.7086C135.519 42.6319 135.339 42.5662 135.081 42.5114C134.826 42.4566 134.622 42.3909 134.47 42.3142C134.321 42.2375 134.209 42.1462 134.136 42.0403C134.065 41.9344 134.029 41.8084 134.029 41.6623C134.029 41.4194 134.132 41.214 134.336 41.046C134.542 40.878 134.805 40.794 135.125 40.794C135.461 40.794 135.733 40.8807 135.941 41.0542C136.151 41.2277 136.256 41.4495 136.256 41.7198H135.747C135.747 41.581 135.687 41.4614 135.569 41.361C135.452 41.2605 135.304 41.2103 135.125 41.2103C134.941 41.2103 134.796 41.2505 134.692 41.3308C134.588 41.4112 134.536 41.5162 134.536 41.6458C134.536 41.7682 134.584 41.8604 134.681 41.9225C134.778 41.9846 134.952 42.0439 135.204 42.1005C135.458 42.1571 135.664 42.2247 135.821 42.3032C135.978 42.3818 136.094 42.4767 136.169 42.5881C136.245 42.6977 136.284 42.8319 136.284 42.9908C136.284 43.2555 136.178 43.4683 135.966 43.629C135.754 43.7878 135.479 43.8673 135.141 43.8673C134.904 43.8673 134.694 43.8253 134.511 43.7413C134.329 43.6573 134.185 43.5404 134.081 43.3907C133.979 43.2391 133.928 43.0757 133.928 42.9004H134.435C134.444 43.0702 134.511 43.2053 134.637 43.3058C134.765 43.4044 134.933 43.4537 135.141 43.4537C135.333 43.4537 135.487 43.4153 135.602 43.3386C135.718 43.2601 135.777 43.156 135.777 43.0264ZM138.669 43.0264C138.669 42.8894 138.617 42.7835 138.513 42.7086C138.411 42.6319 138.231 42.5662 137.974 42.5114C137.718 42.4566 137.514 42.3909 137.363 42.3142C137.213 42.2375 137.102 42.1462 137.029 42.0403C136.958 41.9344 136.922 41.8084 136.922 41.6623C136.922 41.4194 137.024 41.214 137.229 41.046C137.435 40.878 137.698 40.794 138.018 40.794C138.354 40.794 138.626 40.8807 138.834 41.0542C139.044 41.2277 139.149 41.4495 139.149 41.7198H138.639C138.639 41.581 138.58 41.4614 138.461 41.361C138.344 41.2605 138.197 41.2103 138.018 41.2103C137.833 41.2103 137.689 41.2505 137.585 41.3308C137.481 41.4112 137.429 41.5162 137.429 41.6458C137.429 41.7682 137.477 41.8604 137.574 41.9225C137.671 41.9846 137.845 42.0439 138.097 42.1005C138.351 42.1571 138.556 42.2247 138.713 42.3032C138.87 42.3818 138.986 42.4767 139.061 42.5881C139.138 42.6977 139.176 42.8319 139.176 42.9908C139.176 43.2555 139.07 43.4683 138.858 43.629C138.647 43.7878 138.372 43.8673 138.034 43.8673C137.797 43.8673 137.587 43.8253 137.404 43.7413C137.221 43.6573 137.078 43.5404 136.974 43.3907C136.872 43.2391 136.821 43.0757 136.821 42.9004H137.327C137.336 43.0702 137.404 43.2053 137.53 43.3058C137.658 43.4044 137.826 43.4537 138.034 43.4537C138.226 43.4537 138.379 43.4153 138.494 43.3386C138.611 43.2601 138.669 43.156 138.669 43.0264Z" fill="#2D3A4B" fill-opacity="0.7"/>
<path d="M113.157 57.9643C113.157 57.6648 113.073 57.4274 112.905 57.2521C112.741 57.0731 112.46 56.9088 112.061 56.759C111.663 56.6093 111.32 56.4614 111.032 56.3153C110.743 56.1656 110.495 55.9957 110.287 55.8058C110.082 55.6123 109.921 55.3858 109.804 55.1265C109.691 54.8672 109.635 54.5586 109.635 54.2007C109.635 53.5835 109.832 53.0776 110.226 52.6832C110.621 52.2888 111.145 52.0587 111.799 51.9929V50.8206H112.675V52.0094C113.321 52.1007 113.827 52.3709 114.193 52.8202C114.558 53.2657 114.74 53.8446 114.74 54.5568H113.157C113.157 54.1185 113.066 53.7916 112.883 53.5762C112.704 53.357 112.463 53.2475 112.16 53.2475C111.861 53.2475 111.629 53.3333 111.464 53.5049C111.3 53.6729 111.218 53.9067 111.218 54.2062C111.218 54.4837 111.298 54.7065 111.459 54.8745C111.62 55.0425 111.917 55.2142 112.352 55.3895C112.79 55.5648 113.15 55.7309 113.431 55.888C113.712 56.0414 113.95 56.2167 114.143 56.4139C114.337 56.6075 114.485 56.8303 114.587 57.0823C114.689 57.3306 114.74 57.621 114.74 57.9533C114.74 58.5742 114.547 59.0782 114.16 59.4653C113.773 59.8524 113.239 60.0807 112.56 60.1501V61.2403H111.689V60.1556C110.94 60.0752 110.36 59.8104 109.947 59.3612C109.538 58.9083 109.333 58.3076 109.333 57.5589H110.917C110.917 57.9935 111.019 58.3277 111.223 58.5614C111.431 58.7915 111.729 58.9065 112.116 58.9065C112.438 58.9065 112.691 58.8225 112.878 58.6545C113.064 58.4829 113.157 58.2528 113.157 57.9643ZM119.6 57.9643C119.6 57.6648 119.516 57.4274 119.348 57.2521C119.183 57.0731 118.902 56.9088 118.504 56.759C118.106 56.6093 117.763 56.4614 117.474 56.3153C117.185 56.1656 116.937 55.9957 116.729 55.8058C116.524 55.6123 116.364 55.3858 116.247 55.1265C116.134 54.8672 116.077 54.5586 116.077 54.2007C116.077 53.5835 116.274 53.0776 116.669 52.6832C117.063 52.2888 117.587 52.0587 118.241 51.9929V50.8206H119.117V52.0094C119.764 52.1007 120.27 52.3709 120.635 52.8202C121 53.2657 121.183 53.8446 121.183 54.5568H119.6C119.6 54.1185 119.508 53.7916 119.326 53.5762C119.147 53.357 118.906 53.2475 118.603 53.2475C118.303 53.2475 118.071 53.3333 117.907 53.5049C117.742 53.6729 117.66 53.9067 117.66 54.2062C117.66 54.4837 117.741 54.7065 117.901 54.8745C118.062 55.0425 118.36 55.2142 118.794 55.3895C119.233 55.5648 119.592 55.7309 119.873 55.888C120.155 56.0414 120.392 56.2167 120.586 56.4139C120.779 56.6075 120.927 56.8303 121.029 57.0823C121.132 57.3306 121.183 57.621 121.183 57.9533C121.183 58.5742 120.989 59.0782 120.602 59.4653C120.215 59.8524 119.682 60.0807 119.002 60.1501V61.2403H118.131V60.1556C117.383 60.0752 116.802 59.8104 116.389 59.3612C115.98 58.9083 115.776 58.3076 115.776 57.5589H117.359C117.359 57.9935 117.461 58.3277 117.666 58.5614C117.874 58.7915 118.172 58.9065 118.559 58.9065C118.88 58.9065 119.134 58.8225 119.32 58.6545C119.506 58.4829 119.6 58.2528 119.6 57.9643ZM126.042 57.9643C126.042 57.6648 125.958 57.4274 125.79 57.2521C125.626 57.0731 125.344 56.9088 124.946 56.759C124.548 56.6093 124.205 56.4614 123.916 56.3153C123.628 56.1656 123.38 55.9957 123.171 55.8058C122.967 55.6123 122.806 55.3858 122.689 55.1265C122.576 54.8672 122.52 54.5586 122.52 54.2007C122.52 53.5835 122.717 53.0776 123.111 52.6832C123.506 52.2888 124.03 52.0587 124.683 51.9929V50.8206H125.56V52.0094C126.206 52.1007 126.712 52.3709 127.077 52.8202C127.443 53.2657 127.625 53.8446 127.625 54.5568H126.042C126.042 54.1185 125.951 53.7916 125.768 53.5762C125.589 53.357 125.348 53.2475 125.045 53.2475C124.746 53.2475 124.514 53.3333 124.349 53.5049C124.185 53.6729 124.103 53.9067 124.103 54.2062C124.103 54.4837 124.183 54.7065 124.344 54.8745C124.504 55.0425 124.802 55.2142 125.237 55.3895C125.675 55.5648 126.035 55.7309 126.316 55.888C126.597 56.0414 126.835 56.2167 127.028 56.4139C127.222 56.6075 127.37 56.8303 127.472 57.0823C127.574 57.3306 127.625 57.621 127.625 57.9533C127.625 58.5742 127.432 59.0782 127.045 59.4653C126.657 59.8524 126.124 60.0807 125.445 60.1501V61.2403H124.574V60.1556C123.825 60.0752 123.244 59.8104 122.832 59.3612C122.423 58.9083 122.218 58.3076 122.218 57.5589H123.801C123.801 57.9935 123.904 58.3277 124.108 58.5614C124.316 58.7915 124.614 58.9065 125.001 58.9065C125.323 58.9065 125.576 58.8225 125.763 58.6545C125.949 58.4829 126.042 58.2528 126.042 57.9643ZM132.484 57.9643C132.484 57.6648 132.4 57.4274 132.232 57.2521C132.068 57.0731 131.787 56.9088 131.389 56.759C130.991 56.6093 130.647 56.4614 130.359 56.3153C130.07 56.1656 129.822 55.9957 129.614 55.8058C129.409 55.6123 129.249 55.3858 129.132 55.1265C129.019 54.8672 128.962 54.5586 128.962 54.2007C128.962 53.5835 129.159 53.0776 129.554 52.6832C129.948 52.2888 130.472 52.0587 131.126 51.9929V50.8206H132.002V52.0094C132.649 52.1007 133.155 52.3709 133.52 52.8202C133.885 53.2657 134.068 53.8446 134.068 54.5568H132.484C132.484 54.1185 132.393 53.7916 132.211 53.5762C132.032 53.357 131.791 53.2475 131.487 53.2475C131.188 53.2475 130.956 53.3333 130.792 53.5049C130.627 53.6729 130.545 53.9067 130.545 54.2062C130.545 54.4837 130.626 54.7065 130.786 54.8745C130.947 55.0425 131.245 55.2142 131.679 55.3895C132.117 55.5648 132.477 55.7309 132.758 55.888C133.04 56.0414 133.277 56.2167 133.471 56.4139C133.664 56.6075 133.812 56.8303 133.914 57.0823C134.017 57.3306 134.068 57.621 134.068 57.9533C134.068 58.5742 133.874 59.0782 133.487 59.4653C133.1 59.8524 132.567 60.0807 131.887 60.1501V61.2403H131.016V60.1556C130.268 60.0752 129.687 59.8104 129.274 59.3612C128.865 58.9083 128.661 58.3076 128.661 57.5589H130.244C130.244 57.9935 130.346 58.3277 130.551 58.5614C130.759 58.7915 131.056 58.9065 131.444 58.9065C131.765 58.9065 132.019 58.8225 132.205 58.6545C132.391 58.4829 132.484 58.2528 132.484 57.9643Z" fill="#2D3A4B" fill-opacity="0.7"/>
<path d="M181.359 43.9375H180.954V40.5716H181.359V43.9375ZM183.474 43.9375C183.451 43.8908 183.432 43.8075 183.417 43.6877C183.229 43.8834 183.004 43.9813 182.742 43.9813C182.508 43.9813 182.316 43.9156 182.166 43.7841C182.017 43.6512 181.942 43.4832 181.942 43.2801C181.942 43.0332 182.036 42.8418 182.223 42.706C182.411 42.5687 182.676 42.5 183.016 42.5H183.41V42.3137C183.41 42.172 183.368 42.0595 183.283 41.9763C183.199 41.8915 183.074 41.8492 182.909 41.8492C182.764 41.8492 182.643 41.8857 182.545 41.9587C182.447 42.0318 182.398 42.1202 182.398 42.2239H181.991C181.991 42.1056 182.032 41.9916 182.115 41.8821C182.2 41.771 182.314 41.6834 182.457 41.6191C182.602 41.5548 182.76 41.5227 182.933 41.5227C183.206 41.5227 183.42 41.5913 183.575 41.7287C183.73 41.8645 183.81 42.0522 183.816 42.2918V43.3831C183.816 43.6008 183.844 43.7739 183.899 43.9024V43.9375H183.474ZM182.801 43.6285C182.928 43.6285 183.049 43.5957 183.163 43.5299C183.277 43.4642 183.359 43.3787 183.41 43.2735V42.7871H183.093C182.596 42.7871 182.348 42.9324 182.348 43.2231C182.348 43.3502 182.39 43.4496 182.475 43.5212C182.56 43.5927 182.668 43.6285 182.801 43.6285ZM185.832 43.3086C185.832 43.199 185.79 43.1143 185.707 43.0544C185.625 42.993 185.481 42.9405 185.275 42.8966C185.071 42.8528 184.908 42.8002 184.787 42.7389C184.667 42.6775 184.578 42.6045 184.519 42.5197C184.462 42.435 184.434 42.3342 184.434 42.2173C184.434 42.023 184.516 41.8587 184.679 41.7243C184.844 41.5899 185.055 41.5227 185.31 41.5227C185.579 41.5227 185.797 41.5921 185.963 41.7308C186.131 41.8696 186.215 42.0471 186.215 42.2633H185.808C185.808 42.1523 185.76 42.0566 185.665 41.9763C185.572 41.8959 185.454 41.8558 185.31 41.8558C185.163 41.8558 185.047 41.8879 184.964 41.9522C184.881 42.0165 184.839 42.1005 184.839 42.2042C184.839 42.3021 184.878 42.3758 184.955 42.4255C185.033 42.4752 185.172 42.5226 185.374 42.5679C185.577 42.6132 185.741 42.6673 185.867 42.7301C185.993 42.7929 186.085 42.8689 186.145 42.958C186.207 43.0456 186.237 43.153 186.237 43.2801C186.237 43.4919 186.153 43.6621 185.983 43.7907C185.814 43.9178 185.594 43.9813 185.323 43.9813C185.134 43.9813 184.966 43.9477 184.819 43.8805C184.673 43.8133 184.559 43.7198 184.475 43.6C184.394 43.4788 184.353 43.348 184.353 43.2078H184.758C184.765 43.3437 184.819 43.4518 184.92 43.5321C185.023 43.611 185.157 43.6504 185.323 43.6504C185.477 43.6504 185.6 43.6198 185.692 43.5584C185.785 43.4956 185.832 43.4123 185.832 43.3086ZM187.315 40.9924V41.5665H187.758V41.8799H187.315V43.3502C187.315 43.4452 187.335 43.5168 187.375 43.565C187.414 43.6117 187.481 43.6351 187.576 43.6351C187.623 43.6351 187.687 43.6263 187.769 43.6088V43.9375C187.662 43.9667 187.559 43.9813 187.458 43.9813C187.277 43.9813 187.14 43.9265 187.048 43.817C186.956 43.7074 186.91 43.5518 186.91 43.3502V41.8799H186.478V41.5665H186.91V40.9924H187.315ZM189.728 41.5665L189.739 41.8295C189.913 41.6249 190.147 41.5227 190.442 41.5227C190.774 41.5227 191 41.6498 191.12 41.904C191.198 41.79 191.301 41.698 191.426 41.6279C191.553 41.5577 191.703 41.5227 191.876 41.5227C192.396 41.5227 192.66 41.7981 192.669 42.3488V43.9375H192.263V42.3729C192.263 42.2034 192.225 42.0771 192.147 41.9938C192.07 41.9091 191.94 41.8667 191.757 41.8667C191.607 41.8667 191.482 41.912 191.382 42.0026C191.283 42.0917 191.225 42.2122 191.209 42.3641V43.9375H190.802V42.3839C190.802 42.0391 190.633 41.8667 190.296 41.8667C190.03 41.8667 189.848 41.9799 189.75 42.2064V43.9375H189.345V41.5665H189.728ZM193.175 42.7301C193.175 42.4978 193.22 42.2889 193.311 42.1034C193.403 41.9178 193.53 41.7747 193.692 41.6739C193.856 41.5731 194.042 41.5227 194.251 41.5227C194.574 41.5227 194.835 41.6344 195.033 41.8579C195.233 42.0815 195.333 42.3787 195.333 42.7498V42.7783C195.333 43.0091 195.289 43.2166 195.2 43.4006C195.112 43.5832 194.986 43.7257 194.821 43.8279C194.657 43.9302 194.469 43.9813 194.255 43.9813C193.934 43.9813 193.673 43.8696 193.473 43.6461C193.274 43.4225 193.175 43.1267 193.175 42.7586V42.7301ZM193.583 42.7783C193.583 43.0413 193.643 43.2524 193.764 43.4116C193.887 43.5708 194.051 43.6504 194.255 43.6504C194.461 43.6504 194.625 43.5701 194.746 43.4094C194.867 43.2472 194.928 43.0208 194.928 42.7301C194.928 42.4701 194.866 42.2597 194.742 42.099C194.619 41.9368 194.455 41.8558 194.251 41.8558C194.051 41.8558 193.889 41.9354 193.767 42.0946C193.644 42.2538 193.583 42.4817 193.583 42.7783ZM196.225 41.5665L196.238 41.8645C196.42 41.6366 196.656 41.5227 196.948 41.5227C197.449 41.5227 197.702 41.8054 197.707 42.3707V43.9375H197.301V42.3685C197.3 42.1976 197.26 42.0712 197.183 41.9894C197.107 41.9076 196.988 41.8667 196.826 41.8667C196.694 41.8667 196.579 41.9018 196.479 41.9719C196.38 42.042 196.303 42.1341 196.247 42.248V43.9375H195.842V41.5665H196.225ZM198.868 40.9924V41.5665H199.311V41.8799H198.868V43.3502C198.868 43.4452 198.888 43.5168 198.927 43.565C198.967 43.6117 199.034 43.6351 199.129 43.6351C199.176 43.6351 199.24 43.6263 199.322 43.6088V43.9375C199.215 43.9667 199.111 43.9813 199.01 43.9813C198.829 43.9813 198.693 43.9265 198.601 43.817C198.509 43.7074 198.463 43.5518 198.463 43.3502V41.8799H198.031V41.5665H198.463V40.9924H198.868ZM200.192 41.8536C200.371 41.633 200.605 41.5227 200.893 41.5227C201.394 41.5227 201.647 41.8054 201.651 42.3707V43.9375H201.246V42.3685C201.244 42.1976 201.205 42.0712 201.127 41.9894C201.051 41.9076 200.932 41.8667 200.77 41.8667C200.639 41.8667 200.523 41.9018 200.424 41.9719C200.324 42.042 200.247 42.1341 200.192 42.248V43.9375H199.786V40.5716H200.192V41.8536Z" fill="#2D3A4B" fill-opacity="0.7"/>
<path d="M203.915 43.3125L203.073 42.1875H204.756L203.915 43.3125Z" fill="#2D3A4B"/>
<rect x="108.829" y="96.1875" width="95.9268" height="4.5" rx="1.12195" fill="white"/>
<rect x="108.829" y="87.1875" width="95.9268" height="4.5" rx="1.12195" fill="white"/>
<rect x="108.829" y="105.188" width="95.9268" height="4.5" rx="1.12195" fill="white"/>
<g filter="url(#filter0_d)">
<rect x="104.341" y="123.188" width="105" height="80" rx="2" fill="#F6F6F7"/>
<path d="M109.861 132.695H109.335V128.706H109.861V132.695ZM111.225 129.731L111.241 130.103C111.468 129.818 111.763 129.676 112.129 129.676C112.755 129.676 113.071 130.029 113.076 130.736V132.695H112.57V130.733C112.568 130.52 112.518 130.362 112.422 130.259C112.327 130.157 112.178 130.106 111.975 130.106C111.811 130.106 111.667 130.15 111.542 130.238C111.418 130.325 111.321 130.44 111.252 130.583V132.695H110.745V129.731H111.225ZM115.029 132.336C115.21 132.336 115.368 132.281 115.503 132.171C115.638 132.062 115.713 131.925 115.728 131.76H116.207C116.198 131.93 116.14 132.092 116.032 132.245C115.924 132.399 115.78 132.521 115.599 132.612C115.42 132.704 115.23 132.749 115.029 132.749C114.626 132.749 114.304 132.615 114.065 132.347C113.828 132.076 113.709 131.708 113.709 131.24V131.155C113.709 130.867 113.762 130.61 113.868 130.385C113.974 130.161 114.125 129.986 114.323 129.862C114.522 129.738 114.756 129.676 115.027 129.676C115.359 129.676 115.635 129.776 115.854 129.975C116.075 130.174 116.193 130.432 116.207 130.75H115.728C115.713 130.558 115.64 130.401 115.509 130.279C115.379 130.154 115.218 130.092 115.027 130.092C114.769 130.092 114.569 130.185 114.427 130.372C114.286 130.556 114.216 130.824 114.216 131.174V131.27C114.216 131.612 114.286 131.875 114.427 132.059C114.567 132.243 114.768 132.336 115.029 132.336ZM116.643 131.185C116.643 130.895 116.699 130.634 116.813 130.402C116.928 130.17 117.086 129.991 117.289 129.865C117.494 129.739 117.727 129.676 117.988 129.676C118.391 129.676 118.717 129.816 118.966 130.095C119.216 130.374 119.341 130.746 119.341 131.21V131.246C119.341 131.534 119.285 131.793 119.174 132.023C119.064 132.252 118.906 132.43 118.7 132.558C118.495 132.685 118.26 132.749 117.993 132.749C117.591 132.749 117.265 132.61 117.015 132.33C116.767 132.051 116.643 131.681 116.643 131.221V131.185ZM117.152 131.246C117.152 131.574 117.228 131.838 117.38 132.037C117.533 132.236 117.737 132.336 117.993 132.336C118.251 132.336 118.455 132.235 118.607 132.034C118.758 131.832 118.834 131.549 118.834 131.185C118.834 130.86 118.756 130.597 118.601 130.396C118.448 130.194 118.243 130.092 117.988 130.092C117.737 130.092 117.536 130.192 117.382 130.391C117.229 130.59 117.152 130.875 117.152 131.246ZM120.453 129.731L120.467 130.059C120.684 129.804 120.977 129.676 121.346 129.676C121.76 129.676 122.042 129.835 122.192 130.153C122.291 130.01 122.419 129.895 122.576 129.807C122.735 129.72 122.922 129.676 123.137 129.676C123.787 129.676 124.118 130.02 124.129 130.709V132.695H123.622V130.739C123.622 130.527 123.574 130.369 123.477 130.265C123.38 130.159 123.218 130.106 122.989 130.106C122.801 130.106 122.645 130.163 122.521 130.276C122.397 130.387 122.325 130.538 122.305 130.728V132.695H121.795V130.752C121.795 130.322 121.584 130.106 121.162 130.106C120.83 130.106 120.603 130.248 120.48 130.531V132.695H119.974V129.731H120.453ZM126.126 132.749C125.724 132.749 125.397 132.618 125.145 132.355C124.893 132.09 124.767 131.737 124.767 131.295V131.202C124.767 130.908 124.823 130.646 124.934 130.416C125.047 130.184 125.204 130.003 125.405 129.873C125.608 129.742 125.827 129.676 126.063 129.676C126.448 129.676 126.747 129.803 126.961 130.057C127.175 130.311 127.282 130.674 127.282 131.147V131.358H125.274C125.281 131.65 125.366 131.886 125.528 132.067C125.693 132.246 125.901 132.336 126.153 132.336C126.332 132.336 126.484 132.299 126.608 132.226C126.732 132.153 126.841 132.056 126.934 131.936L127.243 132.177C126.995 132.558 126.622 132.749 126.126 132.749ZM126.063 130.092C125.858 130.092 125.686 130.167 125.548 130.317C125.409 130.465 125.323 130.673 125.29 130.941H126.775V130.903C126.76 130.646 126.691 130.447 126.567 130.306C126.442 130.164 126.274 130.092 126.063 130.092Z" fill="#2D3A4B" fill-opacity="0.7"/>
<path d="M113.161 146.864C113.161 146.564 113.077 146.327 112.909 146.152C112.745 145.973 112.464 145.808 112.066 145.659C111.668 145.509 111.324 145.361 111.036 145.215C110.747 145.065 110.499 144.895 110.291 144.705C110.086 144.512 109.925 144.285 109.809 144.026C109.695 143.767 109.639 143.458 109.639 143.1C109.639 142.483 109.836 141.977 110.23 141.583C110.625 141.188 111.149 140.958 111.803 140.893V139.72H112.679V140.909C113.326 141 113.831 141.271 114.197 141.72C114.562 142.165 114.744 142.744 114.744 143.456H113.161C113.161 143.018 113.07 142.691 112.887 142.476C112.708 142.257 112.467 142.147 112.164 142.147C111.865 142.147 111.633 142.233 111.468 142.405C111.304 142.573 111.222 142.806 111.222 143.106C111.222 143.383 111.302 143.606 111.463 143.774C111.624 143.942 111.921 144.114 112.356 144.289C112.794 144.464 113.154 144.631 113.435 144.788C113.716 144.941 113.954 145.116 114.147 145.314C114.341 145.507 114.489 145.73 114.591 145.982C114.693 146.23 114.744 146.521 114.744 146.853C114.744 147.474 114.551 147.978 114.164 148.365C113.777 148.752 113.243 148.98 112.564 149.05V150.14H111.693V149.055C110.944 148.975 110.364 148.71 109.951 148.261C109.542 147.808 109.337 147.207 109.337 146.459H110.921C110.921 146.893 111.023 147.227 111.227 147.461C111.436 147.691 111.733 147.806 112.12 147.806C112.442 147.806 112.696 147.722 112.882 147.554C113.068 147.383 113.161 147.152 113.161 146.864ZM119.604 146.864C119.604 146.564 119.52 146.327 119.352 146.152C119.187 145.973 118.906 145.808 118.508 145.659C118.11 145.509 117.767 145.361 117.478 145.215C117.19 145.065 116.941 144.895 116.733 144.705C116.529 144.512 116.368 144.285 116.251 144.026C116.138 143.767 116.081 143.458 116.081 143.1C116.081 142.483 116.278 141.977 116.673 141.583C117.067 141.188 117.591 140.958 118.245 140.893V139.72H119.122V140.909C119.768 141 120.274 141.271 120.639 141.72C121.004 142.165 121.187 142.744 121.187 143.456H119.604C119.604 143.018 119.512 142.691 119.33 142.476C119.151 142.257 118.91 142.147 118.607 142.147C118.307 142.147 118.075 142.233 117.911 142.405C117.747 142.573 117.664 142.806 117.664 143.106C117.664 143.383 117.745 143.606 117.905 143.774C118.066 143.942 118.364 144.114 118.798 144.289C119.237 144.464 119.596 144.631 119.878 144.788C120.159 144.941 120.396 145.116 120.59 145.314C120.783 145.507 120.931 145.73 121.034 145.982C121.136 146.23 121.187 146.521 121.187 146.853C121.187 147.474 120.993 147.978 120.606 148.365C120.219 148.752 119.686 148.98 119.007 149.05V150.14H118.136V149.055C117.387 148.975 116.806 148.71 116.393 148.261C115.984 147.808 115.78 147.207 115.78 146.459H117.363C117.363 146.893 117.465 147.227 117.67 147.461C117.878 147.691 118.176 147.806 118.563 147.806C118.884 147.806 119.138 147.722 119.324 147.554C119.511 147.383 119.604 147.152 119.604 146.864ZM126.046 146.864C126.046 146.564 125.962 146.327 125.794 146.152C125.63 145.973 125.349 145.808 124.951 145.659C124.552 145.509 124.209 145.361 123.921 145.215C123.632 145.065 123.384 144.895 123.176 144.705C122.971 144.512 122.81 144.285 122.693 144.026C122.58 143.767 122.524 143.458 122.524 143.1C122.524 142.483 122.721 141.977 123.115 141.583C123.51 141.188 124.034 140.958 124.688 140.893V139.72H125.564V140.909C126.211 141 126.716 141.271 127.082 141.72C127.447 142.165 127.629 142.744 127.629 143.456H126.046C126.046 143.018 125.955 142.691 125.772 142.476C125.593 142.257 125.352 142.147 125.049 142.147C124.75 142.147 124.518 142.233 124.353 142.405C124.189 142.573 124.107 142.806 124.107 143.106C124.107 143.383 124.187 143.606 124.348 143.774C124.509 143.942 124.806 144.114 125.241 144.289C125.679 144.464 126.039 144.631 126.32 144.788C126.601 144.941 126.839 145.116 127.032 145.314C127.226 145.507 127.374 145.73 127.476 145.982C127.578 146.23 127.629 146.521 127.629 146.853C127.629 147.474 127.436 147.978 127.049 148.365C126.662 148.752 126.128 148.98 125.449 149.05V150.14H124.578V149.055C123.829 148.975 123.249 148.71 122.836 148.261C122.427 147.808 122.222 147.207 122.222 146.459H123.806C123.806 146.893 123.908 147.227 124.112 147.461C124.321 147.691 124.618 147.806 125.005 147.806C125.327 147.806 125.581 147.722 125.767 147.554C125.953 147.383 126.046 147.152 126.046 146.864ZM132.489 146.864C132.489 146.564 132.405 146.327 132.237 146.152C132.072 145.973 131.791 145.808 131.393 145.659C130.995 145.509 130.652 145.361 130.363 145.215C130.075 145.065 129.826 144.895 129.618 144.705C129.413 144.512 129.253 144.285 129.136 144.026C129.023 143.767 128.966 143.458 128.966 143.1C128.966 142.483 129.163 141.977 129.558 141.583C129.952 141.188 130.476 140.958 131.13 140.893V139.72H132.007V140.909C132.653 141 133.159 141.271 133.524 141.72C133.889 142.165 134.072 142.744 134.072 143.456H132.489C132.489 143.018 132.397 142.691 132.215 142.476C132.036 142.257 131.795 142.147 131.492 142.147C131.192 142.147 130.96 142.233 130.796 142.405C130.632 142.573 130.549 142.806 130.549 143.106C130.549 143.383 130.63 143.606 130.79 143.774C130.951 143.942 131.249 144.114 131.683 144.289C132.122 144.464 132.481 144.631 132.763 144.788C133.044 144.941 133.281 145.116 133.475 145.314C133.668 145.507 133.816 145.73 133.918 145.982C134.021 146.23 134.072 146.521 134.072 146.853C134.072 147.474 133.878 147.978 133.491 148.365C133.104 148.752 132.571 148.98 131.892 149.05V150.14H131.02V149.055C130.272 148.975 129.691 148.71 129.278 148.261C128.869 147.808 128.665 147.207 128.665 146.459H130.248C130.248 146.893 130.35 147.227 130.555 147.461C130.763 147.691 131.061 147.806 131.448 147.806C131.769 147.806 132.023 147.722 132.209 147.554C132.396 147.383 132.489 147.152 132.489 146.864Z" fill="#2D3A4B" fill-opacity="0.7"/>
<path d="M181.45 132.821H181.045V129.455H181.45V132.821ZM183.565 132.821C183.541 132.775 183.522 132.691 183.508 132.571C183.319 132.767 183.094 132.865 182.833 132.865C182.599 132.865 182.407 132.799 182.257 132.668C182.108 132.535 182.033 132.367 182.033 132.164C182.033 131.917 182.127 131.726 182.314 131.59C182.502 131.452 182.766 131.384 183.107 131.384H183.501V131.198C183.501 131.056 183.459 130.943 183.374 130.86C183.289 130.775 183.165 130.733 182.999 130.733C182.855 130.733 182.734 130.769 182.636 130.843C182.538 130.916 182.489 131.004 182.489 131.108H182.081C182.081 130.989 182.123 130.875 182.206 130.766C182.291 130.655 182.405 130.567 182.548 130.503C182.693 130.439 182.851 130.406 183.024 130.406C183.297 130.406 183.511 130.475 183.666 130.612C183.82 130.748 183.901 130.936 183.907 131.176V132.267C183.907 132.485 183.934 132.658 183.99 132.786V132.821H183.565ZM182.892 132.512C183.019 132.512 183.14 132.479 183.254 132.414C183.368 132.348 183.45 132.263 183.501 132.157V131.671H183.184C182.687 131.671 182.438 131.816 182.438 132.107C182.438 132.234 182.481 132.333 182.566 132.405C182.65 132.477 182.759 132.512 182.892 132.512ZM185.923 132.192C185.923 132.083 185.881 131.998 185.798 131.938C185.716 131.877 185.572 131.824 185.366 131.78C185.162 131.737 184.999 131.684 184.877 131.623C184.758 131.561 184.669 131.488 184.61 131.404C184.553 131.319 184.525 131.218 184.525 131.101C184.525 130.907 184.606 130.742 184.77 130.608C184.935 130.474 185.145 130.406 185.401 130.406C185.67 130.406 185.888 130.476 186.054 130.615C186.222 130.753 186.306 130.931 186.306 131.147H185.899C185.899 131.036 185.851 130.94 185.756 130.86C185.663 130.78 185.544 130.74 185.401 130.74C185.254 130.74 185.138 130.772 185.055 130.836C184.972 130.9 184.93 130.984 184.93 131.088C184.93 131.186 184.969 131.26 185.046 131.309C185.124 131.359 185.263 131.406 185.465 131.452C185.668 131.497 185.832 131.551 185.958 131.614C186.083 131.677 186.176 131.753 186.236 131.842C186.297 131.929 186.328 132.037 186.328 132.164C186.328 132.376 186.243 132.546 186.074 132.674C185.904 132.802 185.685 132.865 185.414 132.865C185.224 132.865 185.056 132.832 184.91 132.764C184.764 132.697 184.65 132.604 184.566 132.484C184.484 132.363 184.444 132.232 184.444 132.092H184.849C184.856 132.227 184.91 132.336 185.011 132.416C185.113 132.495 185.248 132.534 185.414 132.534C185.568 132.534 185.69 132.504 185.782 132.442C185.876 132.379 185.923 132.296 185.923 132.192ZM187.406 129.876V130.45H187.849V130.764H187.406V132.234C187.406 132.329 187.426 132.401 187.465 132.449C187.505 132.496 187.572 132.519 187.667 132.519C187.714 132.519 187.778 132.51 187.86 132.493V132.821C187.753 132.851 187.649 132.865 187.549 132.865C187.367 132.865 187.231 132.81 187.139 132.701C187.047 132.591 187.001 132.436 187.001 132.234V130.764H186.569V130.45H187.001V129.876H187.406ZM189.819 130.45L189.83 130.713C190.004 130.509 190.238 130.406 190.533 130.406C190.865 130.406 191.091 130.534 191.21 130.788C191.289 130.674 191.391 130.582 191.517 130.512C191.644 130.442 191.794 130.406 191.966 130.406C192.486 130.406 192.751 130.682 192.76 131.233V132.821H192.354V131.257C192.354 131.087 192.315 130.961 192.238 130.878C192.161 130.793 192.031 130.751 191.848 130.751C191.697 130.751 191.573 130.796 191.473 130.886C191.374 130.975 191.316 131.096 191.3 131.248V132.821H190.893V131.268C190.893 130.923 190.724 130.751 190.386 130.751C190.12 130.751 189.939 130.864 189.841 131.09V132.821H189.435V130.45H189.819ZM193.266 131.614C193.266 131.382 193.311 131.173 193.402 130.987C193.494 130.802 193.621 130.658 193.783 130.558C193.947 130.457 194.133 130.406 194.342 130.406C194.665 130.406 194.925 130.518 195.124 130.742C195.324 130.965 195.424 131.263 195.424 131.634V131.662C195.424 131.893 195.38 132.1 195.291 132.284C195.203 132.467 195.077 132.609 194.911 132.712C194.748 132.814 194.559 132.865 194.346 132.865C194.025 132.865 193.764 132.753 193.564 132.53C193.365 132.306 193.266 132.011 193.266 131.642V131.614ZM193.673 131.662C193.673 131.925 193.734 132.136 193.855 132.295C193.978 132.455 194.142 132.534 194.346 132.534C194.552 132.534 194.716 132.454 194.837 132.293C194.958 132.131 195.019 131.905 195.019 131.614C195.019 131.354 194.957 131.143 194.833 130.983C194.71 130.821 194.546 130.74 194.342 130.74C194.142 130.74 193.98 130.819 193.857 130.978C193.735 131.138 193.673 131.366 193.673 131.662ZM196.316 130.45L196.329 130.748C196.51 130.52 196.747 130.406 197.039 130.406C197.54 130.406 197.793 130.689 197.797 131.255V132.821H197.392V131.252C197.391 131.081 197.351 130.955 197.274 130.873C197.198 130.791 197.079 130.751 196.916 130.751C196.785 130.751 196.67 130.786 196.57 130.856C196.471 130.926 196.393 131.018 196.338 131.132V132.821H195.933V130.45H196.316ZM198.959 129.876V130.45H199.401V130.764H198.959V132.234C198.959 132.329 198.978 132.401 199.018 132.449C199.057 132.496 199.125 132.519 199.22 132.519C199.266 132.519 199.331 132.51 199.412 132.493V132.821C199.306 132.851 199.202 132.865 199.101 132.865C198.92 132.865 198.783 132.81 198.691 132.701C198.599 132.591 198.553 132.436 198.553 132.234V130.764H198.122V130.45H198.553V129.876H198.959ZM200.282 130.737C200.462 130.517 200.696 130.406 200.984 130.406C201.485 130.406 201.737 130.689 201.742 131.255V132.821H201.336V131.252C201.335 131.081 201.295 130.955 201.218 130.873C201.142 130.791 201.023 130.751 200.861 130.751C200.729 130.751 200.614 130.786 200.515 130.856C200.415 130.926 200.338 131.018 200.282 131.132V132.821H199.877V129.455H200.282V130.737Z" fill="#2D3A4B" fill-opacity="0.7"/>
<path d="M204.007 132.202L203.165 131.075H204.849L204.007 132.202Z" fill="#2D3A4B" fill-opacity="0.7"/>
<rect x="120.063" y="178.962" width="84.7861" height="4.50704" rx="1.12195" fill="white"/>
<rect x="120.063" y="169.948" width="84.7861" height="4.50704" rx="1.12195" fill="white"/>
<rect x="120.063" y="187.976" width="84.7861" height="4.50704" rx="1.12195" fill="white"/>
<rect x="108.833" y="160.934" width="6.73797" height="37.7465" rx="1.12195" fill="#4C7CB4"/>
<rect x="108.833" y="175.582" width="6.73797" height="23.0986" rx="1.12195" fill="#FFA41C"/>
<rect x="108.833" y="182.906" width="6.73797" height="15.7746" rx="1.12195" fill="#DCEDFF"/>
</g>
<rect x="218.219" y="34.3126" width="104.902" height="79.875" rx="2" fill="#F6F6F7"/>
<path d="M225.425 41.9691H223.696V43.3825H225.704V43.8125H223.17V39.8243H225.677V40.2571H223.696V41.539H225.425V41.9691ZM227.273 41.9307L227.931 40.8488H228.523L227.553 42.3142L228.553 43.8125H227.966L227.282 42.7031L226.597 43.8125H226.008L227.008 42.3142L226.038 40.8488H226.624L227.273 41.9307ZM231.566 42.3635C231.566 42.8145 231.463 43.1779 231.256 43.4537C231.05 43.7294 230.77 43.8673 230.418 43.8673C230.058 43.8673 229.775 43.7532 229.569 43.5249V44.952H229.062V40.8488H229.525L229.55 41.1774C229.756 40.9218 230.043 40.794 230.41 40.794C230.766 40.794 231.047 40.9282 231.253 41.1966C231.462 41.4651 231.566 41.8385 231.566 42.3169V42.3635ZM231.059 42.306C231.059 41.9718 230.988 41.7079 230.845 41.5144C230.703 41.3208 230.507 41.224 230.259 41.224C229.952 41.224 229.722 41.3601 229.569 41.6321V43.0483C229.72 43.3185 229.952 43.4537 230.265 43.4537C230.507 43.4537 230.7 43.3578 230.843 43.1661C230.987 42.9725 231.059 42.6858 231.059 42.306ZM233.442 43.8673C233.04 43.8673 232.713 43.7358 232.461 43.4728C232.209 43.2081 232.083 42.8547 232.083 42.4128V42.3197C232.083 42.0257 232.139 41.7636 232.25 41.5335C232.364 41.3016 232.521 41.1208 232.722 40.9912C232.924 40.8597 233.143 40.794 233.379 40.794C233.764 40.794 234.064 40.9209 234.277 41.1747C234.491 41.4285 234.598 41.7919 234.598 42.2649V42.4758H232.59C232.597 42.768 232.682 43.0045 232.845 43.1852C233.009 43.3642 233.217 43.4537 233.469 43.4537C233.648 43.4537 233.8 43.4172 233.924 43.3441C234.048 43.2711 234.157 43.1743 234.25 43.0538L234.56 43.2948C234.311 43.6765 233.939 43.8673 233.442 43.8673ZM233.379 41.2103C233.174 41.2103 233.003 41.2852 232.864 41.4349C232.725 41.5828 232.639 41.791 232.607 42.0595H234.091V42.0211C234.077 41.7636 234.007 41.5646 233.883 41.424C233.759 41.2815 233.591 41.2103 233.379 41.2103ZM235.666 40.8488L235.683 41.2213C235.909 40.9364 236.205 40.794 236.57 40.794C237.196 40.794 237.512 41.1473 237.518 41.854V43.8125H237.011V41.8513C237.009 41.6376 236.96 41.4797 236.863 41.3774C236.768 41.2751 236.619 41.224 236.417 41.224C236.252 41.224 236.108 41.2678 235.984 41.3555C235.86 41.4431 235.763 41.5582 235.694 41.7006V43.8125H235.187V40.8488H235.666ZM240.008 43.0264C240.008 42.8894 239.956 42.7835 239.852 42.7086C239.749 42.6319 239.569 42.5662 239.312 42.5114C239.056 42.4566 238.853 42.3909 238.701 42.3142C238.551 42.2375 238.44 42.1462 238.367 42.0403C238.296 41.9344 238.26 41.8084 238.26 41.6623C238.26 41.4194 238.362 41.214 238.567 41.046C238.773 40.878 239.036 40.794 239.356 40.794C239.692 40.794 239.964 40.8807 240.172 41.0542C240.382 41.2277 240.487 41.4495 240.487 41.7198H239.978C239.978 41.581 239.918 41.4614 239.8 41.361C239.683 41.2605 239.535 41.2103 239.356 41.2103C239.171 41.2103 239.027 41.2505 238.923 41.3308C238.819 41.4112 238.767 41.5162 238.767 41.6458C238.767 41.7682 238.815 41.8604 238.912 41.9225C239.009 41.9846 239.183 42.0439 239.435 42.1005C239.689 42.1571 239.895 42.2247 240.052 42.3032C240.209 42.3818 240.325 42.4767 240.399 42.5881C240.476 42.6977 240.514 42.8319 240.514 42.9908C240.514 43.2555 240.409 43.4683 240.197 43.629C239.985 43.7878 239.71 43.8673 239.372 43.8673C239.135 43.8673 238.925 43.8253 238.742 43.7413C238.56 43.6573 238.416 43.5404 238.312 43.3907C238.21 43.2391 238.159 43.0757 238.159 42.9004H238.666C238.675 43.0702 238.742 43.2053 238.868 43.3058C238.996 43.4044 239.164 43.4537 239.372 43.4537C239.564 43.4537 239.717 43.4153 239.832 43.3386C239.949 43.2601 240.008 43.156 240.008 43.0264ZM242.404 43.8673C242.003 43.8673 241.676 43.7358 241.424 43.4728C241.172 43.2081 241.046 42.8547 241.046 42.4128V42.3197C241.046 42.0257 241.102 41.7636 241.213 41.5335C241.326 41.3016 241.483 41.1208 241.684 40.9912C241.887 40.8597 242.106 40.794 242.341 40.794C242.727 40.794 243.026 40.9209 243.24 41.1747C243.454 41.4285 243.56 41.7919 243.56 42.2649V42.4758H241.553C241.56 42.768 241.645 43.0045 241.807 43.1852C241.972 43.3642 242.18 43.4537 242.432 43.4537C242.611 43.4537 242.762 43.4172 242.887 43.3441C243.011 43.2711 243.119 43.1743 243.213 43.0538L243.522 43.2948C243.274 43.6765 242.901 43.8673 242.404 43.8673ZM242.341 41.2103C242.137 41.2103 241.965 41.2852 241.827 41.4349C241.688 41.5828 241.602 41.791 241.569 42.0595H243.054V42.0211C243.039 41.7636 242.97 41.5646 242.845 41.424C242.721 41.2815 242.553 41.2103 242.341 41.2103Z" fill="#2D3A4B" fill-opacity="0.7"/>
<path d="M227.035 57.9643C227.035 57.6648 226.951 57.4274 226.783 57.2521C226.619 57.0731 226.338 56.9088 225.94 56.759C225.541 56.6093 225.198 56.4614 224.91 56.3153C224.621 56.1656 224.373 55.9957 224.165 55.8058C223.96 55.6123 223.799 55.3858 223.682 55.1265C223.569 54.8672 223.513 54.5586 223.513 54.2007C223.513 53.5835 223.71 53.0776 224.104 52.6832C224.499 52.2888 225.023 52.0587 225.677 51.9929V50.8206H226.553V52.0094C227.2 52.1007 227.705 52.3709 228.071 52.8202C228.436 53.2657 228.618 53.8446 228.618 54.5568H227.035C227.035 54.1185 226.944 53.7916 226.761 53.5762C226.582 53.357 226.341 53.2475 226.038 53.2475C225.739 53.2475 225.507 53.3333 225.342 53.5049C225.178 53.6729 225.096 53.9067 225.096 54.2062C225.096 54.4837 225.176 54.7065 225.337 54.8745C225.498 55.0425 225.795 55.2142 226.23 55.3895C226.668 55.5648 227.028 55.7309 227.309 55.888C227.59 56.0414 227.828 56.2167 228.021 56.4139C228.215 56.6075 228.363 56.8303 228.465 57.0823C228.567 57.3306 228.618 57.621 228.618 57.9533C228.618 58.5742 228.425 59.0782 228.038 59.4653C227.651 59.8524 227.117 60.0807 226.438 60.1501V61.2403H225.567V60.1556C224.818 60.0752 224.238 59.8104 223.825 59.3612C223.416 58.9083 223.211 58.3076 223.211 57.5589H224.795C224.795 57.9935 224.897 58.3277 225.101 58.5614C225.31 58.7915 225.607 58.9065 225.994 58.9065C226.316 58.9065 226.57 58.8225 226.756 58.6545C226.942 58.4829 227.035 58.2528 227.035 57.9643ZM233.478 57.9643C233.478 57.6648 233.394 57.4274 233.226 57.2521C233.061 57.0731 232.78 56.9088 232.382 56.759C231.984 56.6093 231.641 56.4614 231.352 56.3153C231.064 56.1656 230.815 55.9957 230.607 55.8058C230.402 55.6123 230.242 55.3858 230.125 55.1265C230.012 54.8672 229.955 54.5586 229.955 54.2007C229.955 53.5835 230.152 53.0776 230.547 52.6832C230.941 52.2888 231.465 52.0587 232.119 51.9929V50.8206H232.996V52.0094C233.642 52.1007 234.148 52.3709 234.513 52.8202C234.878 53.2657 235.061 53.8446 235.061 54.5568H233.478C233.478 54.1185 233.386 53.7916 233.204 53.5762C233.025 53.357 232.784 53.2475 232.481 53.2475C232.181 53.2475 231.949 53.3333 231.785 53.5049C231.62 53.6729 231.538 53.9067 231.538 54.2062C231.538 54.4837 231.619 54.7065 231.779 54.8745C231.94 55.0425 232.238 55.2142 232.672 55.3895C233.111 55.5648 233.47 55.7309 233.752 55.888C234.033 56.0414 234.27 56.2167 234.464 56.4139C234.657 56.6075 234.805 56.8303 234.907 57.0823C235.01 57.3306 235.061 57.621 235.061 57.9533C235.061 58.5742 234.867 59.0782 234.48 59.4653C234.093 59.8524 233.56 60.0807 232.88 60.1501V61.2403H232.009V60.1556C231.261 60.0752 230.68 59.8104 230.267 59.3612C229.858 58.9083 229.654 58.3076 229.654 57.5589H231.237C231.237 57.9935 231.339 58.3277 231.544 58.5614C231.752 58.7915 232.05 58.9065 232.437 58.9065C232.758 58.9065 233.012 58.8225 233.198 58.6545C233.384 58.4829 233.478 58.2528 233.478 57.9643ZM239.92 57.9643C239.92 57.6648 239.836 57.4274 239.668 57.2521C239.504 57.0731 239.223 56.9088 238.824 56.759C238.426 56.6093 238.083 56.4614 237.795 56.3153C237.506 56.1656 237.258 55.9957 237.049 55.8058C236.845 55.6123 236.684 55.3858 236.567 55.1265C236.454 54.8672 236.398 54.5586 236.398 54.2007C236.398 53.5835 236.595 53.0776 236.989 52.6832C237.384 52.2888 237.908 52.0587 238.561 51.9929V50.8206H239.438V52.0094C240.084 52.1007 240.59 52.3709 240.955 52.8202C241.321 53.2657 241.503 53.8446 241.503 54.5568H239.92C239.92 54.1185 239.829 53.7916 239.646 53.5762C239.467 53.357 239.226 53.2475 238.923 53.2475C238.624 53.2475 238.392 53.3333 238.227 53.5049C238.063 53.6729 237.981 53.9067 237.981 54.2062C237.981 54.4837 238.061 54.7065 238.222 54.8745C238.383 55.0425 238.68 55.2142 239.115 55.3895C239.553 55.5648 239.913 55.7309 240.194 55.888C240.475 56.0414 240.713 56.2167 240.906 56.4139C241.1 56.6075 241.248 56.8303 241.35 57.0823C241.452 57.3306 241.503 57.621 241.503 57.9533C241.503 58.5742 241.31 59.0782 240.923 59.4653C240.535 59.8524 240.002 60.0807 239.323 60.1501V61.2403H238.452V60.1556C237.703 60.0752 237.123 59.8104 236.71 59.3612C236.301 58.9083 236.096 58.3076 236.096 57.5589H237.679C237.679 57.9935 237.782 58.3277 237.986 58.5614C238.194 58.7915 238.492 58.9065 238.879 58.9065C239.201 58.9065 239.454 58.8225 239.641 58.6545C239.827 58.4829 239.92 58.2528 239.92 57.9643ZM246.363 57.9643C246.363 57.6648 246.279 57.4274 246.111 57.2521C245.946 57.0731 245.665 56.9088 245.267 56.759C244.869 56.6093 244.525 56.4614 244.237 56.3153C243.948 56.1656 243.7 55.9957 243.492 55.8058C243.287 55.6123 243.127 55.3858 243.01 55.1265C242.897 54.8672 242.84 54.5586 242.84 54.2007C242.84 53.5835 243.037 53.0776 243.432 52.6832C243.826 52.2888 244.35 52.0587 245.004 51.9929V50.8206H245.88V52.0094C246.527 52.1007 247.033 52.3709 247.398 52.8202C247.763 53.2657 247.946 53.8446 247.946 54.5568H246.363C246.363 54.1185 246.271 53.7916 246.089 53.5762C245.91 53.357 245.669 53.2475 245.365 53.2475C245.066 53.2475 244.834 53.3333 244.67 53.5049C244.505 53.6729 244.423 53.9067 244.423 54.2062C244.423 54.4837 244.504 54.7065 244.664 54.8745C244.825 55.0425 245.123 55.2142 245.557 55.3895C245.995 55.5648 246.355 55.7309 246.636 55.888C246.918 56.0414 247.155 56.2167 247.349 56.4139C247.542 56.6075 247.69 56.8303 247.792 57.0823C247.895 57.3306 247.946 57.621 247.946 57.9533C247.946 58.5742 247.752 59.0782 247.365 59.4653C246.978 59.8524 246.445 60.0807 245.765 60.1501V61.2403H244.894V60.1556C244.146 60.0752 243.565 59.8104 243.152 59.3612C242.743 58.9083 242.539 58.3076 242.539 57.5589H244.122C244.122 57.9935 244.224 58.3277 244.429 58.5614C244.637 58.7915 244.935 58.9065 245.322 58.9065C245.643 58.9065 245.897 58.8225 246.083 58.6545C246.269 58.4829 246.363 58.2528 246.363 57.9643Z" fill="#2D3A4B" fill-opacity="0.7"/>
<path d="M295.237 43.9375H294.832V40.5716H295.237V43.9375ZM297.352 43.9375C297.329 43.8908 297.31 43.8075 297.295 43.6877C297.107 43.8834 296.882 43.9813 296.62 43.9813C296.386 43.9813 296.194 43.9156 296.044 43.7841C295.895 43.6512 295.82 43.4832 295.82 43.2801C295.82 43.0332 295.914 42.8418 296.101 42.706C296.289 42.5687 296.554 42.5 296.894 42.5H297.289V42.3137C297.289 42.172 297.246 42.0595 297.161 41.9763C297.077 41.8915 296.952 41.8492 296.787 41.8492C296.642 41.8492 296.521 41.8857 296.423 41.9587C296.325 42.0318 296.276 42.1202 296.276 42.2239H295.869C295.869 42.1056 295.91 41.9916 295.993 41.8821C296.078 41.771 296.192 41.6834 296.335 41.6191C296.48 41.5548 296.638 41.5227 296.811 41.5227C297.084 41.5227 297.298 41.5913 297.453 41.7287C297.608 41.8645 297.688 42.0522 297.694 42.2918V43.3831C297.694 43.6008 297.722 43.7739 297.777 43.9024V43.9375H297.352ZM296.679 43.6285C296.806 43.6285 296.927 43.5957 297.041 43.5299C297.155 43.4642 297.237 43.3787 297.289 43.2735V42.7871H296.971C296.474 42.7871 296.226 42.9324 296.226 43.2231C296.226 43.3502 296.268 43.4496 296.353 43.5212C296.438 43.5927 296.546 43.6285 296.679 43.6285ZM299.71 43.3086C299.71 43.199 299.668 43.1143 299.585 43.0544C299.503 42.993 299.359 42.9405 299.153 42.8966C298.949 42.8528 298.786 42.8002 298.665 42.7389C298.545 42.6775 298.456 42.6045 298.397 42.5197C298.34 42.435 298.312 42.3342 298.312 42.2173C298.312 42.023 298.394 41.8587 298.557 41.7243C298.722 41.5899 298.933 41.5227 299.188 41.5227C299.457 41.5227 299.675 41.5921 299.841 41.7308C300.009 41.8696 300.093 42.0471 300.093 42.2633H299.686C299.686 42.1523 299.638 42.0566 299.543 41.9763C299.45 41.8959 299.332 41.8558 299.188 41.8558C299.041 41.8558 298.925 41.8879 298.842 41.9522C298.759 42.0165 298.717 42.1005 298.717 42.2042C298.717 42.3021 298.756 42.3758 298.833 42.4255C298.911 42.4752 299.05 42.5226 299.252 42.5679C299.455 42.6132 299.619 42.6673 299.745 42.7301C299.871 42.7929 299.963 42.8689 300.023 42.958C300.085 43.0456 300.115 43.153 300.115 43.2801C300.115 43.4919 300.031 43.6621 299.861 43.7907C299.692 43.9178 299.472 43.9813 299.202 43.9813C299.012 43.9813 298.844 43.9477 298.698 43.8805C298.551 43.8133 298.437 43.7198 298.354 43.6C298.272 43.4788 298.231 43.348 298.231 43.2078H298.636C298.643 43.3437 298.698 43.4518 298.798 43.5321C298.901 43.611 299.035 43.6504 299.202 43.6504C299.355 43.6504 299.478 43.6198 299.57 43.5584C299.663 43.4956 299.71 43.4123 299.71 43.3086ZM301.193 40.9924V41.5665H301.636V41.8799H301.193V43.3502C301.193 43.4452 301.213 43.5168 301.253 43.565C301.292 43.6117 301.359 43.6351 301.454 43.6351C301.501 43.6351 301.565 43.6263 301.647 43.6088V43.9375C301.54 43.9667 301.437 43.9813 301.336 43.9813C301.155 43.9813 301.018 43.9265 300.926 43.817C300.834 43.7074 300.788 43.5518 300.788 43.3502V41.8799H300.356V41.5665H300.788V40.9924H301.193ZM303.606 41.5665L303.617 41.8295C303.791 41.6249 304.025 41.5227 304.32 41.5227C304.652 41.5227 304.878 41.6498 304.998 41.904C305.076 41.79 305.179 41.698 305.304 41.6279C305.431 41.5577 305.581 41.5227 305.754 41.5227C306.274 41.5227 306.538 41.7981 306.547 42.3488V43.9375H306.141V42.3729C306.141 42.2034 306.103 42.0771 306.025 41.9938C305.948 41.9091 305.818 41.8667 305.635 41.8667C305.485 41.8667 305.36 41.912 305.261 42.0026C305.161 42.0917 305.103 42.2122 305.087 42.3641V43.9375H304.68V42.3839C304.68 42.0391 304.511 41.8667 304.174 41.8667C303.908 41.8667 303.726 41.9799 303.628 42.2064V43.9375H303.223V41.5665H303.606ZM307.053 42.7301C307.053 42.4978 307.098 42.2889 307.189 42.1034C307.281 41.9178 307.408 41.7747 307.57 41.6739C307.734 41.5731 307.92 41.5227 308.129 41.5227C308.452 41.5227 308.713 41.6344 308.911 41.8579C309.111 42.0815 309.211 42.3787 309.211 42.7498V42.7783C309.211 43.0091 309.167 43.2166 309.078 43.4006C308.99 43.5832 308.864 43.7257 308.699 43.8279C308.535 43.9302 308.347 43.9813 308.133 43.9813C307.812 43.9813 307.551 43.8696 307.351 43.6461C307.152 43.4225 307.053 43.1267 307.053 42.7586V42.7301ZM307.461 42.7783C307.461 43.0413 307.521 43.2524 307.642 43.4116C307.765 43.5708 307.929 43.6504 308.133 43.6504C308.339 43.6504 308.503 43.5701 308.624 43.4094C308.745 43.2472 308.806 43.0208 308.806 42.7301C308.806 42.4701 308.744 42.2597 308.62 42.099C308.497 41.9368 308.333 41.8558 308.129 41.8558C307.929 41.8558 307.767 41.9354 307.645 42.0946C307.522 42.2538 307.461 42.4817 307.461 42.7783ZM310.103 41.5665L310.116 41.8645C310.298 41.6366 310.534 41.5227 310.826 41.5227C311.328 41.5227 311.58 41.8054 311.585 42.3707V43.9375H311.179V42.3685C311.178 42.1976 311.138 42.0712 311.061 41.9894C310.985 41.9076 310.866 41.8667 310.704 41.8667C310.572 41.8667 310.457 41.9018 310.358 41.9719C310.258 42.042 310.181 42.1341 310.125 42.248V43.9375H309.72V41.5665H310.103ZM312.746 40.9924V41.5665H313.189V41.8799H312.746V43.3502C312.746 43.4452 312.766 43.5168 312.805 43.565C312.845 43.6117 312.912 43.6351 313.007 43.6351C313.054 43.6351 313.118 43.6263 313.2 43.6088V43.9375C313.093 43.9667 312.989 43.9813 312.888 43.9813C312.707 43.9813 312.571 43.9265 312.479 43.817C312.387 43.7074 312.341 43.5518 312.341 43.3502V41.8799H311.909V41.5665H312.341V40.9924H312.746ZM314.07 41.8536C314.249 41.633 314.483 41.5227 314.771 41.5227C315.272 41.5227 315.525 41.8054 315.529 42.3707V43.9375H315.124V42.3685C315.122 42.1976 315.083 42.0712 315.005 41.9894C314.929 41.9076 314.81 41.8667 314.648 41.8667C314.517 41.8667 314.401 41.9018 314.302 41.9719C314.203 42.042 314.125 42.1341 314.07 42.248V43.9375H313.664V40.5716H314.07V41.8536Z" fill="#2D3A4B" fill-opacity="0.7"/>
<path d="M317.793 43.3125L316.951 42.1875H318.634L317.793 43.3125Z" fill="#2D3A4B"/>
<rect x="222.707" y="96.1875" width="95.9268" height="4.5" rx="1.12195" fill="white"/>
<rect x="222.707" y="87.1875" width="95.9268" height="4.5" rx="1.12195" fill="white"/>
<rect x="222.707" y="105.188" width="95.9268" height="4.5" rx="1.12195" fill="white"/>
<rect x="332.098" y="34.3126" width="104.902" height="79.875" rx="2" fill="#F6F6F7"/>
<path d="M337.048 43.8125V39.8243H338.352C338.785 39.8243 339.11 39.9138 339.327 40.0927C339.546 40.2717 339.656 40.5365 339.656 40.8871C339.656 41.0734 339.603 41.2386 339.497 41.3829C339.391 41.5253 339.247 41.6358 339.064 41.7143C339.28 41.7746 339.45 41.8896 339.574 42.0595C339.7 42.2275 339.763 42.4283 339.763 42.6621C339.763 43.02 339.647 43.3012 339.415 43.5057C339.183 43.7102 338.855 43.8125 338.432 43.8125H337.048ZM337.574 41.9471V43.3825H338.443C338.687 43.3825 338.88 43.3195 339.021 43.1935C339.163 43.0656 339.234 42.8903 339.234 42.6675C339.234 42.1873 338.973 41.9471 338.451 41.9471H337.574ZM337.574 41.5253H338.369C338.599 41.5253 338.782 41.4678 338.919 41.3528C339.058 41.2377 339.127 41.0816 339.127 40.8844C339.127 40.6652 339.063 40.5064 338.936 40.4078C338.808 40.3073 338.613 40.2571 338.352 40.2571H337.574V41.5253ZM342.294 43.8125C342.265 43.7541 342.241 43.65 342.223 43.5002C341.987 43.7449 341.706 43.8673 341.379 43.8673C341.087 43.8673 340.847 43.7851 340.659 43.6208C340.472 43.4546 340.379 43.2446 340.379 42.9908C340.379 42.6821 340.496 42.4429 340.73 42.2731C340.965 42.1015 341.296 42.0156 341.721 42.0156H342.214V41.7828C342.214 41.6057 342.161 41.4651 342.056 41.361C341.95 41.2551 341.793 41.2021 341.587 41.2021C341.406 41.2021 341.255 41.2478 341.132 41.3391C341.01 41.4304 340.949 41.5408 340.949 41.6705H340.439C340.439 41.5226 340.491 41.3801 340.596 41.2432C340.701 41.1044 340.844 40.9948 341.023 40.9145C341.204 40.8341 341.402 40.794 341.617 40.794C341.959 40.794 342.226 40.8798 342.42 41.0514C342.613 41.2213 342.714 41.4559 342.721 41.7554V43.1195C342.721 43.3916 342.756 43.608 342.825 43.7687V43.8125H342.294ZM341.453 43.4263C341.612 43.4263 341.762 43.3852 341.905 43.303C342.047 43.2208 342.15 43.114 342.214 42.9825V42.3745H341.817C341.196 42.3745 340.886 42.5561 340.886 42.9195C340.886 43.0784 340.939 43.2026 341.045 43.2921C341.151 43.3815 341.287 43.4263 341.453 43.4263ZM343.995 40.8488L344.011 41.2213C344.238 40.9364 344.534 40.794 344.899 40.794C345.525 40.794 345.841 41.1473 345.846 41.854V43.8125H345.34V41.8513C345.338 41.6376 345.289 41.4797 345.192 41.3774C345.097 41.2751 344.948 41.224 344.745 41.224C344.581 41.224 344.437 41.2678 344.313 41.3555C344.188 41.4431 344.092 41.5582 344.022 41.7006V43.8125H343.515V40.8488H343.995ZM347.438 42.4402L347.12 42.7716V43.8125H346.613V39.6052H347.12V42.1498L347.391 41.8239L348.314 40.8488H348.931L347.778 42.0868L349.065 43.8125H348.471L347.438 42.4402ZM353.127 42.7716H351.456L351.081 43.8125H350.539L352.062 39.8243H352.522L354.047 43.8125H353.508L353.127 42.7716ZM351.615 42.3388H352.971L352.292 40.4735L351.615 42.3388ZM355.694 43.4537C355.874 43.4537 356.032 43.3989 356.168 43.2893C356.303 43.1798 356.378 43.0428 356.392 42.8785H356.872C356.862 43.0483 356.804 43.2099 356.696 43.3633C356.588 43.5167 356.444 43.639 356.263 43.7303C356.084 43.8216 355.895 43.8673 355.694 43.8673C355.29 43.8673 354.969 43.7331 354.73 43.4646C354.492 43.1944 354.373 42.8255 354.373 42.358V42.2731C354.373 41.9846 354.426 41.728 354.532 41.5034C354.638 41.2788 354.79 41.1044 354.987 40.9802C355.186 40.8561 355.421 40.794 355.691 40.794C356.023 40.794 356.299 40.8935 356.518 41.0925C356.739 41.2916 356.857 41.55 356.872 41.8677H356.392C356.378 41.676 356.305 41.5189 356.173 41.3966C356.043 41.2724 355.883 41.2103 355.691 41.2103C355.433 41.2103 355.234 41.3034 355.091 41.4897C354.95 41.6741 354.88 41.9417 354.88 42.2923V42.3881C354.88 42.7296 354.95 42.9926 355.091 43.177C355.232 43.3615 355.433 43.4537 355.694 43.4537ZM358.63 43.4537C358.811 43.4537 358.969 43.3989 359.104 43.2893C359.239 43.1798 359.314 43.0428 359.329 42.8785H359.808C359.799 43.0483 359.74 43.2099 359.633 43.3633C359.525 43.5167 359.381 43.639 359.2 43.7303C359.021 43.8216 358.831 43.8673 358.63 43.8673C358.226 43.8673 357.905 43.7331 357.666 43.4646C357.428 43.1944 357.31 42.8255 357.31 42.358V42.2731C357.31 41.9846 357.363 41.728 357.469 41.5034C357.575 41.2788 357.726 41.1044 357.923 40.9802C358.122 40.8561 358.357 40.794 358.627 40.794C358.96 40.794 359.235 40.8935 359.455 41.0925C359.675 41.2916 359.793 41.55 359.808 41.8677H359.329C359.314 41.676 359.241 41.5189 359.109 41.3966C358.98 41.2724 358.819 41.2103 358.627 41.2103C358.37 41.2103 358.17 41.3034 358.027 41.4897C357.887 41.6741 357.817 41.9417 357.817 42.2923V42.3881C357.817 42.7296 357.887 42.9926 358.027 43.177C358.168 43.3615 358.369 43.4537 358.63 43.4537ZM360.243 42.3032C360.243 42.0129 360.3 41.7518 360.413 41.5198C360.528 41.2879 360.687 41.109 360.89 40.983C361.094 40.857 361.327 40.794 361.588 40.794C361.992 40.794 362.318 40.9337 362.566 41.2131C362.816 41.4924 362.941 41.8641 362.941 42.3279V42.3635C362.941 42.652 362.886 42.9113 362.774 43.1414C362.665 43.3697 362.507 43.5477 362.3 43.6755C362.096 43.8034 361.86 43.8673 361.594 43.8673C361.192 43.8673 360.866 43.7276 360.616 43.4482C360.368 43.1688 360.243 42.799 360.243 42.3388V42.3032ZM360.753 42.3635C360.753 42.6922 360.829 42.9561 360.98 43.1551C361.134 43.3542 361.338 43.4537 361.594 43.4537C361.851 43.4537 362.056 43.3532 362.207 43.1524C362.359 42.9497 362.435 42.6666 362.435 42.3032C362.435 41.9782 362.357 41.7152 362.202 41.5144C362.048 41.3117 361.844 41.2103 361.588 41.2103C361.338 41.2103 361.136 41.3098 360.983 41.5089C360.83 41.7079 360.753 41.9928 360.753 42.3635ZM365.407 43.5194C365.209 43.7513 364.92 43.8673 364.538 43.8673C364.222 43.8673 363.981 43.776 363.815 43.5934C363.651 43.4089 363.568 43.1368 363.566 42.7771V40.8488H364.073V42.7634C364.073 43.2126 364.255 43.4372 364.621 43.4372C365.008 43.4372 365.265 43.293 365.393 43.0045V40.8488H365.9V43.8125H365.418L365.407 43.5194ZM367.151 40.8488L367.168 41.2213C367.394 40.9364 367.69 40.794 368.055 40.794C368.682 40.794 368.998 41.1473 369.003 41.854V43.8125H368.496V41.8513C368.495 41.6376 368.445 41.4797 368.349 41.3774C368.254 41.2751 368.105 41.224 367.902 41.224C367.738 41.224 367.593 41.2678 367.469 41.3555C367.345 41.4431 367.248 41.5582 367.179 41.7006V43.8125H366.672V40.8488H367.151ZM370.455 40.1311V40.8488H371.008V41.2404H370.455V43.0784C370.455 43.1971 370.48 43.2866 370.529 43.3468C370.578 43.4053 370.662 43.4345 370.781 43.4345C370.839 43.4345 370.92 43.4235 371.022 43.4016V43.8125C370.889 43.849 370.759 43.8673 370.633 43.8673C370.407 43.8673 370.236 43.7988 370.121 43.6618C370.006 43.5249 369.948 43.3304 369.948 43.0784V41.2404H369.409V40.8488H369.948V40.1311H370.455Z" fill="#2D3A4B" fill-opacity="0.7"/>
<rect x="336.585" y="96.1875" width="95.9268" height="4.5" rx="1.12195" fill="white"/>
<rect x="336.585" y="50.0624" width="34.7805" height="4.5" rx="1.12195" fill="white"/>
<rect x="336.585" y="56.8125" width="34.7805" height="4.5" rx="1.12195" fill="white"/>
<rect x="336.585" y="63.5625" width="34.7805" height="4.5" rx="1.12195" fill="white"/>
<rect x="336.585" y="105.188" width="95.9268" height="4.5" rx="1.12195" fill="white"/>
<rect x="218.219" y="123.188" width="104.902" height="79.875" rx="2" fill="#F6F6F7"/>
<path d="M224.345 130.91C223.894 130.78 223.566 130.621 223.359 130.433C223.155 130.243 223.052 130.01 223.052 129.732C223.052 129.418 223.178 129.159 223.428 128.954C223.68 128.748 224.007 128.645 224.408 128.645C224.682 128.645 224.926 128.697 225.14 128.803C225.355 128.909 225.521 129.055 225.638 129.242C225.757 129.428 225.816 129.632 225.816 129.852H225.288C225.288 129.611 225.211 129.422 225.058 129.285C224.904 129.147 224.688 129.077 224.408 129.077C224.149 129.077 223.946 129.135 223.8 129.25C223.656 129.363 223.584 129.521 223.584 129.724C223.584 129.886 223.652 130.024 223.789 130.137C223.928 130.249 224.163 130.351 224.493 130.444C224.826 130.537 225.085 130.64 225.271 130.754C225.459 130.865 225.598 130.996 225.688 131.145C225.779 131.295 225.824 131.471 225.824 131.674C225.824 131.997 225.698 132.257 225.446 132.452C225.194 132.645 224.858 132.742 224.436 132.742C224.162 132.742 223.906 132.69 223.669 132.586C223.431 132.48 223.248 132.336 223.118 132.153C222.99 131.971 222.926 131.763 222.926 131.532H223.455C223.455 131.773 223.544 131.963 223.721 132.104C223.9 132.243 224.138 132.312 224.436 132.312C224.713 132.312 224.926 132.256 225.074 132.142C225.222 132.029 225.296 131.875 225.296 131.679C225.296 131.484 225.227 131.333 225.09 131.228C224.953 131.12 224.705 131.014 224.345 130.91ZM228.251 132.688C228.222 132.629 228.198 132.525 228.18 132.375C227.945 132.62 227.663 132.742 227.336 132.742C227.044 132.742 226.804 132.66 226.616 132.496C226.43 132.33 226.337 132.12 226.337 131.866C226.337 131.557 226.454 131.318 226.687 131.148C226.923 130.976 227.253 130.891 227.679 130.891H228.172V130.658C228.172 130.481 228.119 130.34 228.013 130.236C227.907 130.13 227.751 130.077 227.545 130.077C227.364 130.077 227.212 130.123 227.09 130.214C226.968 130.305 226.906 130.416 226.906 130.545H226.397C226.397 130.398 226.449 130.255 226.553 130.118C226.659 129.979 226.801 129.87 226.98 129.789C227.161 129.709 227.359 129.669 227.575 129.669C227.916 129.669 228.184 129.755 228.377 129.926C228.571 130.096 228.671 130.331 228.679 130.63V131.994C228.679 132.267 228.713 132.483 228.783 132.644V132.688H228.251ZM227.41 132.301C227.569 132.301 227.72 132.26 227.862 132.178C228.005 132.096 228.108 131.989 228.172 131.858V131.249H227.775C227.154 131.249 226.843 131.431 226.843 131.795C226.843 131.953 226.896 132.078 227.002 132.167C227.108 132.257 227.244 132.301 227.41 132.301ZM230.024 132.688H229.517V128.48H230.024V132.688ZM232.067 132.742C231.665 132.742 231.338 132.611 231.086 132.348C230.834 132.083 230.708 131.73 230.708 131.288V131.195C230.708 130.901 230.764 130.639 230.875 130.409C230.989 130.177 231.146 129.996 231.347 129.866C231.549 129.735 231.768 129.669 232.004 129.669C232.389 129.669 232.689 129.796 232.902 130.05C233.116 130.304 233.223 130.667 233.223 131.14V131.351H231.215C231.222 131.643 231.307 131.879 231.47 132.06C231.634 132.239 231.842 132.329 232.094 132.329C232.273 132.329 232.425 132.292 232.549 132.219C232.673 132.146 232.782 132.049 232.875 131.929L233.185 132.17C232.936 132.551 232.564 132.742 232.067 132.742ZM232.004 130.085C231.799 130.085 231.628 130.16 231.489 130.31C231.35 130.458 231.264 130.666 231.232 130.934H232.716V130.896C232.702 130.639 232.632 130.44 232.508 130.299C232.384 130.157 232.216 130.085 232.004 130.085ZM235.537 131.901C235.537 131.764 235.485 131.658 235.381 131.584C235.279 131.507 235.099 131.441 234.842 131.386C234.586 131.332 234.382 131.266 234.231 131.189C234.081 131.112 233.97 131.021 233.897 130.915C233.825 130.809 233.79 130.683 233.79 130.537C233.79 130.294 233.892 130.089 234.097 129.921C234.303 129.753 234.566 129.669 234.886 129.669C235.222 129.669 235.494 129.756 235.702 129.929C235.912 130.103 236.017 130.325 236.017 130.595H235.507C235.507 130.456 235.448 130.336 235.329 130.236C235.212 130.136 235.065 130.085 234.886 130.085C234.701 130.085 234.557 130.125 234.453 130.206C234.349 130.286 234.297 130.391 234.297 130.521C234.297 130.643 234.345 130.735 234.442 130.797C234.539 130.86 234.713 130.919 234.965 130.976C235.219 131.032 235.424 131.1 235.581 131.178C235.738 131.257 235.854 131.352 235.929 131.463C236.006 131.573 236.044 131.707 236.044 131.866C236.044 132.131 235.938 132.343 235.726 132.504C235.515 132.663 235.24 132.742 234.902 132.742C234.665 132.742 234.455 132.7 234.272 132.616C234.089 132.532 233.946 132.415 233.842 132.266C233.74 132.114 233.689 131.951 233.689 131.775H234.195C234.204 131.945 234.272 132.08 234.398 132.181C234.526 132.279 234.694 132.329 234.902 132.329C235.094 132.329 235.247 132.29 235.362 132.214C235.479 132.135 235.537 132.031 235.537 131.901Z" fill="#2D3A4B" fill-opacity="0.7"/>
<path d="M227.035 146.839C227.035 146.54 226.951 146.302 226.783 146.127C226.619 145.948 226.338 145.784 225.94 145.634C225.541 145.484 225.198 145.336 224.91 145.19C224.621 145.041 224.373 144.871 224.165 144.681C223.96 144.487 223.799 144.261 223.682 144.002C223.569 143.742 223.513 143.434 223.513 143.076C223.513 142.458 223.71 141.953 224.104 141.558C224.499 141.164 225.023 140.934 225.677 140.868V139.696H226.553V140.884C227.2 140.976 227.705 141.246 228.071 141.695C228.436 142.141 228.618 142.72 228.618 143.432H227.035C227.035 142.994 226.944 142.667 226.761 142.451C226.582 142.232 226.341 142.122 226.038 142.122C225.739 142.122 225.507 142.208 225.342 142.38C225.178 142.548 225.096 142.782 225.096 143.081C225.096 143.359 225.176 143.582 225.337 143.75C225.498 143.918 225.795 144.089 226.23 144.264C226.668 144.44 227.028 144.606 227.309 144.763C227.59 144.916 227.828 145.092 228.021 145.289C228.215 145.482 228.363 145.705 228.465 145.957C228.567 146.206 228.618 146.496 228.618 146.828C228.618 147.449 228.425 147.953 228.038 148.34C227.651 148.727 227.117 148.956 226.438 149.025V150.115H225.567V149.031C224.818 148.95 224.238 148.685 223.825 148.236C223.416 147.783 223.211 147.183 223.211 146.434H224.795C224.795 146.868 224.897 147.203 225.101 147.436C225.31 147.666 225.607 147.782 225.994 147.782C226.316 147.782 226.57 147.698 226.756 147.53C226.942 147.358 227.035 147.128 227.035 146.839ZM233.478 146.839C233.478 146.54 233.394 146.302 233.226 146.127C233.061 145.948 232.78 145.784 232.382 145.634C231.984 145.484 231.641 145.336 231.352 145.19C231.064 145.041 230.815 144.871 230.607 144.681C230.402 144.487 230.242 144.261 230.125 144.002C230.012 143.742 229.955 143.434 229.955 143.076C229.955 142.458 230.152 141.953 230.547 141.558C230.941 141.164 231.465 140.934 232.119 140.868V139.696H232.996V140.884C233.642 140.976 234.148 141.246 234.513 141.695C234.878 142.141 235.061 142.72 235.061 143.432H233.478C233.478 142.994 233.386 142.667 233.204 142.451C233.025 142.232 232.784 142.122 232.481 142.122C232.181 142.122 231.949 142.208 231.785 142.38C231.62 142.548 231.538 142.782 231.538 143.081C231.538 143.359 231.619 143.582 231.779 143.75C231.94 143.918 232.238 144.089 232.672 144.264C233.111 144.44 233.47 144.606 233.752 144.763C234.033 144.916 234.27 145.092 234.464 145.289C234.657 145.482 234.805 145.705 234.907 145.957C235.01 146.206 235.061 146.496 235.061 146.828C235.061 147.449 234.867 147.953 234.48 148.34C234.093 148.727 233.56 148.956 232.88 149.025V150.115H232.009V149.031C231.261 148.95 230.68 148.685 230.267 148.236C229.858 147.783 229.654 147.183 229.654 146.434H231.237C231.237 146.868 231.339 147.203 231.544 147.436C231.752 147.666 232.05 147.782 232.437 147.782C232.758 147.782 233.012 147.698 233.198 147.53C233.384 147.358 233.478 147.128 233.478 146.839ZM239.92 146.839C239.92 146.54 239.836 146.302 239.668 146.127C239.504 145.948 239.223 145.784 238.824 145.634C238.426 145.484 238.083 145.336 237.795 145.19C237.506 145.041 237.258 144.871 237.049 144.681C236.845 144.487 236.684 144.261 236.567 144.002C236.454 143.742 236.398 143.434 236.398 143.076C236.398 142.458 236.595 141.953 236.989 141.558C237.384 141.164 237.908 140.934 238.561 140.868V139.696H239.438V140.884C240.084 140.976 240.59 141.246 240.955 141.695C241.321 142.141 241.503 142.72 241.503 143.432H239.92C239.92 142.994 239.829 142.667 239.646 142.451C239.467 142.232 239.226 142.122 238.923 142.122C238.624 142.122 238.392 142.208 238.227 142.38C238.063 142.548 237.981 142.782 237.981 143.081C237.981 143.359 238.061 143.582 238.222 143.75C238.383 143.918 238.68 144.089 239.115 144.264C239.553 144.44 239.913 144.606 240.194 144.763C240.475 144.916 240.713 145.092 240.906 145.289C241.1 145.482 241.248 145.705 241.35 145.957C241.452 146.206 241.503 146.496 241.503 146.828C241.503 147.449 241.31 147.953 240.923 148.34C240.535 148.727 240.002 148.956 239.323 149.025V150.115H238.452V149.031C237.703 148.95 237.123 148.685 236.71 148.236C236.301 147.783 236.096 147.183 236.096 146.434H237.679C237.679 146.868 237.782 147.203 237.986 147.436C238.194 147.666 238.492 147.782 238.879 147.782C239.201 147.782 239.454 147.698 239.641 147.53C239.827 147.358 239.92 147.128 239.92 146.839ZM246.363 146.839C246.363 146.54 246.279 146.302 246.111 146.127C245.946 145.948 245.665 145.784 245.267 145.634C244.869 145.484 244.525 145.336 244.237 145.19C243.948 145.041 243.7 144.871 243.492 144.681C243.287 144.487 243.127 144.261 243.01 144.002C242.897 143.742 242.84 143.434 242.84 143.076C242.84 142.458 243.037 141.953 243.432 141.558C243.826 141.164 244.35 140.934 245.004 140.868V139.696H245.88V140.884C246.527 140.976 247.033 141.246 247.398 141.695C247.763 142.141 247.946 142.72 247.946 143.432H246.363C246.363 142.994 246.271 142.667 246.089 142.451C245.91 142.232 245.669 142.122 245.365 142.122C245.066 142.122 244.834 142.208 244.67 142.38C244.505 142.548 244.423 142.782 244.423 143.081C244.423 143.359 244.504 143.582 244.664 143.75C244.825 143.918 245.123 144.089 245.557 144.264C245.995 144.44 246.355 144.606 246.636 144.763C246.918 144.916 247.155 145.092 247.349 145.289C247.542 145.482 247.69 145.705 247.792 145.957C247.895 146.206 247.946 146.496 247.946 146.828C247.946 147.449 247.752 147.953 247.365 148.34C246.978 148.727 246.445 148.956 245.765 149.025V150.115H244.894V149.031C244.146 148.95 243.565 148.685 243.152 148.236C242.743 147.783 242.539 147.183 242.539 146.434H244.122C244.122 146.868 244.224 147.203 244.429 147.436C244.637 147.666 244.935 147.782 245.322 147.782C245.643 147.782 245.897 147.698 246.083 147.53C246.269 147.358 246.363 147.128 246.363 146.839Z" fill="#2D3A4B" fill-opacity="0.7"/>
<path d="M295.237 132.812H294.832V129.447H295.237V132.812ZM297.352 132.812C297.329 132.766 297.31 132.682 297.295 132.563C297.107 132.758 296.882 132.856 296.62 132.856C296.386 132.856 296.194 132.791 296.044 132.659C295.895 132.526 295.82 132.358 295.82 132.155C295.82 131.908 295.914 131.717 296.101 131.581C296.289 131.444 296.554 131.375 296.894 131.375H297.289V131.189C297.289 131.047 297.246 130.935 297.161 130.851C297.077 130.767 296.952 130.724 296.787 130.724C296.642 130.724 296.521 130.761 296.423 130.834C296.325 130.907 296.276 130.995 296.276 131.099H295.869C295.869 130.981 295.91 130.867 295.993 130.757C296.078 130.646 296.192 130.558 296.335 130.494C296.48 130.43 296.638 130.398 296.811 130.398C297.084 130.398 297.298 130.466 297.453 130.604C297.608 130.74 297.688 130.927 297.694 131.167V132.258C297.694 132.476 297.722 132.649 297.777 132.777V132.812H297.352ZM296.679 132.504C296.806 132.504 296.927 132.471 297.041 132.405C297.155 132.339 297.237 132.254 297.289 132.149V131.662H296.971C296.474 131.662 296.226 131.807 296.226 132.098C296.226 132.225 296.268 132.325 296.353 132.396C296.438 132.468 296.546 132.504 296.679 132.504ZM299.71 132.184C299.71 132.074 299.668 131.989 299.585 131.929C299.503 131.868 299.359 131.815 299.153 131.772C298.949 131.728 298.786 131.675 298.665 131.614C298.545 131.552 298.456 131.479 298.397 131.395C298.34 131.31 298.312 131.209 298.312 131.092C298.312 130.898 298.394 130.734 298.557 130.599C298.722 130.465 298.933 130.398 299.188 130.398C299.457 130.398 299.675 130.467 299.841 130.606C300.009 130.745 300.093 130.922 300.093 131.138H299.686C299.686 131.027 299.638 130.932 299.543 130.851C299.45 130.771 299.332 130.731 299.188 130.731C299.041 130.731 298.925 130.763 298.842 130.827C298.759 130.891 298.717 130.975 298.717 131.079C298.717 131.177 298.756 131.251 298.833 131.3C298.911 131.35 299.05 131.398 299.252 131.443C299.455 131.488 299.619 131.542 299.745 131.605C299.871 131.668 299.963 131.744 300.023 131.833C300.085 131.921 300.115 132.028 300.115 132.155C300.115 132.367 300.031 132.537 299.861 132.666C299.692 132.793 299.472 132.856 299.202 132.856C299.012 132.856 298.844 132.823 298.698 132.756C298.551 132.688 298.437 132.595 298.354 132.475C298.272 132.354 298.231 132.223 298.231 132.083H298.636C298.643 132.219 298.698 132.327 298.798 132.407C298.901 132.486 299.035 132.525 299.202 132.525C299.355 132.525 299.478 132.495 299.57 132.433C299.663 132.371 299.71 132.287 299.71 132.184ZM301.193 129.867V130.442H301.636V130.755H301.193V132.225C301.193 132.32 301.213 132.392 301.253 132.44C301.292 132.487 301.359 132.51 301.454 132.51C301.501 132.51 301.565 132.501 301.647 132.484V132.812C301.54 132.842 301.437 132.856 301.336 132.856C301.155 132.856 301.018 132.802 300.926 132.692C300.834 132.582 300.788 132.427 300.788 132.225V130.755H300.356V130.442H300.788V129.867H301.193ZM303.606 130.442L303.617 130.704C303.791 130.5 304.025 130.398 304.32 130.398C304.652 130.398 304.878 130.525 304.998 130.779C305.076 130.665 305.179 130.573 305.304 130.503C305.431 130.433 305.581 130.398 305.754 130.398C306.274 130.398 306.538 130.673 306.547 131.224V132.812H306.141V131.248C306.141 131.078 306.103 130.952 306.025 130.869C305.948 130.784 305.818 130.742 305.635 130.742C305.485 130.742 305.36 130.787 305.261 130.878C305.161 130.967 305.103 131.087 305.087 131.239V132.812H304.68V131.259C304.68 130.914 304.511 130.742 304.174 130.742C303.908 130.742 303.726 130.855 303.628 131.081V132.812H303.223V130.442H303.606ZM307.053 131.605C307.053 131.373 307.098 131.164 307.189 130.978C307.281 130.793 307.408 130.65 307.57 130.549C307.734 130.448 307.92 130.398 308.129 130.398C308.452 130.398 308.713 130.509 308.911 130.733C309.111 130.956 309.211 131.254 309.211 131.625V131.653C309.211 131.884 309.167 132.092 309.078 132.276C308.99 132.458 308.864 132.601 308.699 132.703C308.535 132.805 308.347 132.856 308.133 132.856C307.812 132.856 307.551 132.745 307.351 132.521C307.152 132.298 307.053 132.002 307.053 131.634V131.605ZM307.461 131.653C307.461 131.916 307.521 132.127 307.642 132.287C307.765 132.446 307.929 132.525 308.133 132.525C308.339 132.525 308.503 132.445 308.624 132.284C308.745 132.122 308.806 131.896 308.806 131.605C308.806 131.345 308.744 131.135 308.62 130.974C308.497 130.812 308.333 130.731 308.129 130.731C307.929 130.731 307.767 130.81 307.645 130.97C307.522 131.129 307.461 131.357 307.461 131.653ZM310.103 130.442L310.116 130.74C310.298 130.512 310.534 130.398 310.826 130.398C311.328 130.398 311.58 130.68 311.585 131.246V132.812H311.179V131.244C311.178 131.073 311.138 130.946 311.061 130.864C310.985 130.783 310.866 130.742 310.704 130.742C310.572 130.742 310.457 130.777 310.358 130.847C310.258 130.917 310.181 131.009 310.125 131.123V132.812H309.72V130.442H310.103ZM312.746 129.867V130.442H313.189V130.755H312.746V132.225C312.746 132.32 312.766 132.392 312.805 132.44C312.845 132.487 312.912 132.51 313.007 132.51C313.054 132.51 313.118 132.501 313.2 132.484V132.812C313.093 132.842 312.989 132.856 312.888 132.856C312.707 132.856 312.571 132.802 312.479 132.692C312.387 132.582 312.341 132.427 312.341 132.225V130.755H311.909V130.442H312.341V129.867H312.746ZM314.07 130.729C314.249 130.508 314.483 130.398 314.771 130.398C315.272 130.398 315.525 130.68 315.529 131.246V132.812H315.124V131.244C315.122 131.073 315.083 130.946 315.005 130.864C314.929 130.783 314.81 130.742 314.648 130.742C314.517 130.742 314.401 130.777 314.302 130.847C314.203 130.917 314.125 131.009 314.07 131.123V132.812H313.664V129.447H314.07V130.729Z" fill="#2D3A4B" fill-opacity="0.7"/>
<path d="M317.793 132.188L316.951 131.063H318.634L317.793 132.188Z" fill="#2D3A4B" fill-opacity="0.7"/>
<path d="M222.988 187.031L238.976 181.406L254.402 182.531L275.159 177.469L292.549 180.281L306.012 174.937L318.354 161.719" stroke="#4C7CB4" stroke-width="0.560976"/>
<ellipse cx="238.976" cy="181.687" rx="1.12195" ry="1.125" fill="#4C7CB4"/>
<ellipse cx="223.268" cy="186.75" rx="1.12195" ry="1.125" fill="#4C7CB4"/>
<ellipse cx="254.683" cy="182.812" rx="1.12195" ry="1.125" fill="#4C7CB4"/>
<ellipse cx="275.439" cy="177.75" rx="1.12195" ry="1.125" fill="#4C7CB4"/>
<ellipse cx="292.829" cy="180.562" rx="1.12195" ry="1.125" fill="#4C7CB4"/>
<ellipse cx="305.732" cy="174.375" rx="1.12195" ry="1.125" fill="#4C7CB4"/>
<ellipse cx="318.073" cy="162" rx="1.12195" ry="1.125" fill="#4C7CB4"/>
<defs>
<filter id="filter0_d" x="24.3415" y="43.1875" width="265" height="240" filterUnits="userSpaceOnUse" color-interpolation-filters="sRGB">
<feFlood flood-opacity="0" result="BackgroundImageFix"/>
<feColorMatrix in="SourceAlpha" type="matrix" values="0 0 0 0 0 0 0 0 0 0 0 0 0 0 0 0 0 0 127 0" result="hardAlpha"/>
<feOffset/>
<feGaussianBlur stdDeviation="40"/>
<feColorMatrix type="matrix" values="0 0 0 0 0.243718 0 0 0 0 0.332486 0 0 0 0 0.448566 0 0 0 0.26 0"/>
<feBlend mode="normal" in2="BackgroundImageFix" result="effect1_dropShadow"/>
<feBlend mode="normal" in="SourceGraphic" in2="effect1_dropShadow" result="shape"/>
</filter>
</defs>
</svg>
