<svg width="40" height="32" viewBox="0 0 40 32" fill="none" xmlns="http://www.w3.org/2000/svg">
<path fill-rule="evenodd" clip-rule="evenodd" d="M10.383 32C12.508 32 14.353 31.27 15.916 29.812C17.479 28.353 18.261 26.652 18.261 24.707C18.261 23.764 18.117 22.853 17.828 21.972C17.54 21.09 17.047 20.285 16.348 19.556C15.62 18.796 14.663 18.203 13.479 17.778C12.295 17.352 10.762 17.14 8.88 17.14H6.33C6.633 13.98 7.757 11.29 9.7 9.071C11.643 6.853 14.33 4.908 17.76 3.236L15.756 0C11.415 1.915 7.704 4.726 4.622 8.433C1.541 12.141 0 15.818 0 19.464C0 23.384 0.896 26.454 2.687 28.672C4.477 30.891 7.043 32 10.383 32ZM32.122 32C34.247 32 36.092 31.27 37.655 29.812C39.218 28.353 40 26.652 40 24.707C40 23.764 39.856 22.853 39.567 21.972C39.279 21.09 38.786 20.285 38.087 19.556C37.359 18.796 36.402 18.203 35.218 17.778C34.034 17.352 32.501 17.14 30.619 17.14H28.069C28.373 13.98 29.496 11.29 31.439 9.071C33.382 6.853 36.069 4.908 39.499 3.236L37.495 0C33.155 1.915 29.443 4.726 26.361 8.433C23.28 12.141 21.739 15.818 21.739 19.464C21.739 23.384 22.635 26.454 24.426 28.672C26.217 30.891 28.782 32 32.122 32Z" fill="#4C7CB4"/>
</svg>
