<svg width="197" height="37" viewBox="0 0 197 37" fill="none" xmlns="http://www.w3.org/2000/svg">
<path d="M11.5167 28.4954C11.5167 28.4954 15.883 29.2294 19.4706 27.2251L11.767 10.4852L5.1758 23.6118C8.06814 28.3825 11.5167 28.4954 11.5167 28.4954Z" fill="white"/>
<path d="M31.7074 11.078C28.4522 3.0045 15.299 0.520332 15.299 0.520332L25.5334 22.5391C25.5334 22.5391 33.4754 15.463 31.7074 11.078Z" fill="white"/>
<path d="M1.5882 14.2115C0.726072 10.3441 -0.886962 1.73419 8.56873 0.23804L1.5882 14.2115Z" fill="white"/>
<path fill-rule="evenodd" clip-rule="evenodd" d="M61.2292 29.3216V4H73.6885C77.888 4 82.1708 7.47219 82.1708 13.3156C82.1708 19.1591 76.8311 21.7844 73.6885 21.8408C70.5459 21.8973 65.9571 21.8691 65.9571 21.8691V29.3216H61.2292ZM73.327 8.5449H65.9571V17.4935H73.327C78.2495 17.2113 79.3619 9.36354 73.327 8.5449Z" fill="white"/>
<path d="M123.359 4.05646H128.087V14.6706H140.268V4.02823H144.996V29.3498H140.323V19.1308H128.087V29.3498H123.359V4.05646Z" fill="white"/>
<path d="M169.803 4.05646H174.141V29.2933H169.803V4.05646Z" fill="white"/>
<path fill-rule="evenodd" clip-rule="evenodd" d="M177.924 11.509H182.04L182.29 13.8802C183.417 12.5486 184.256 11.9898 186.1 11.3114C187.564 11.0491 188.352 11.0465 189.716 11.2267C191.406 11.5869 192.227 11.9878 193.553 12.9204C194.495 13.6595 194.908 14.1401 195.528 15.0658C196.222 16.304 196.492 17.0096 196.807 18.284C197.117 20.4029 197.08 21.6168 196.501 23.8451C196.015 25.2155 195.553 26 194.36 27.4302C192.614 28.938 191.414 29.4245 188.937 29.745C185.641 29.7893 184.198 29.2609 182.318 27.3738V36.7458H177.924V11.509ZM187.685 25.4259C190.45 25.4259 192.691 23.151 192.691 20.3447C192.691 17.5384 190.45 15.2634 187.685 15.2634C184.921 15.2634 182.679 17.5384 182.679 20.3447C182.679 23.151 184.921 25.4259 187.685 25.4259Z" fill="white"/>
<path fill-rule="evenodd" clip-rule="evenodd" d="M165.464 26.8939L162.711 24.0992C160.666 25.5829 159.295 25.9696 156.315 25.5953C154.197 24.9599 153.424 24.1699 152.81 21.9538H166.521C166.643 19.9129 166.583 18.7797 166.132 16.7878C164.618 12.9634 163.121 11.588 158.873 11.0008C154.305 10.8652 152.309 11.6642 149.723 14.8965C147.964 18.4352 147.774 21.0388 149.112 24.6638C150.961 28.3861 153.075 29.4074 157.816 29.8297C161.746 29.5825 163.298 28.8916 165.464 26.8939ZM152.894 18.284H162.294C161.591 15.9383 160.751 15.0499 157.816 14.84C154.873 15.103 153.879 15.9455 152.894 18.284Z" fill="white"/>
<path d="M85.3691 4.05646L85.3413 29.3498H90.0691L90.0969 11.0573L97.9396 21.9538H98.9408L107.006 11.0573V29.3498H111.734V4.05646H106.338L98.5514 14.84L90.7644 4.05646H85.3691Z" fill="white"/>
<path fill-rule="evenodd" clip-rule="evenodd" d="M43.18 4.02823L32 29.3216H37.1172L39.2308 24.5791H52.2463L54.3599 29.3216H59.4772L48.3528 4.02823H43.18ZM41.122 20.1189H50.3552L45.7664 9.44823L41.122 20.1189Z" fill="white"/>
</svg>
